<svg width="32" height="31" viewBox="0 0 32 31" fill="none" xmlns="http://www.w3.org/2000/svg">
<rect y="26.6665" width="32" height="3.39394" fill="#E8AE4C"/>
<rect y="30.0605" width="32" height="0.484848" fill="#EABC6B"/>
<rect x="22.48" y="16.3359" width="7.49778" height="13.4164" fill="#ACA2FF"/>
<rect x="23.9304" y="24.8496" width="4.59048" height="4.90263" fill="#BFE2E4"/>
<rect x="26.0847" y="24.8496" width="0.28767" height="4.90263" fill="white"/>
<path d="M22.4799 2.06836V29.7459H2.24512V8.91735C2.24512 8.8439 2.24512 8.80718 2.24512 8.80718V2.06836H22.4799Z" fill="#ACA2FF"/>
<path d="M22.4799 2.06836V25.492C14.2538 25.492 13.2684 5.44695 13.1582 2.06836L22.4799 2.06836Z" fill="#7A6DEF"/>
<rect x="1.63281" y="2.01367" width="21.4528" height="0.875251" fill="#B5C5F4"/>
<rect opacity="0.42" x="2.24512" y="2.88867" width="20.2348" height="0.434565" fill="#575756"/>
<rect x="1.63281" y="11.2866" width="21.4528" height="0.875251" fill="#B5C5F4"/>
<rect opacity="0.42" x="2.24512" y="12.1621" width="20.2348" height="0.434565" fill="#575756"/>
<rect x="1.63281" y="20.3452" width="21.4528" height="0.875251" fill="#B5C5F4"/>
<rect opacity="0.42" x="2.24512" y="21.2202" width="20.2348" height="0.434565" fill="#575756"/>
<rect x="4.13623" y="13.8999" width="2.85222" height="5.89417" fill="#BFE2E4"/>
<rect x="8.81836" y="13.8999" width="2.8461" height="5.89417" fill="#BFE2E4"/>
<rect x="13.4946" y="13.8999" width="2.8461" height="5.89417" fill="#BFE2E4"/>
<rect x="18.177" y="13.8999" width="2.8461" height="5.89417" fill="#BFE2E4"/>
<rect x="4.13623" y="22.5181" width="2.85222" height="5.89417" fill="#BFE2E4"/>
<rect x="8.81836" y="22.5181" width="2.8461" height="5.89417" fill="#BFE2E4"/>
<rect x="13.4946" y="22.5181" width="2.8461" height="5.89417" fill="#BFE2E4"/>
<rect x="18.177" y="22.5181" width="2.8461" height="5.89417" fill="#BFE2E4"/>
<rect x="4.13623" y="4.62109" width="2.85222" height="5.89417" fill="#BFE2E4"/>
<rect x="8.81836" y="4.62109" width="2.8461" height="5.89417" fill="#BFE2E4"/>
<rect x="13.4946" y="4.62109" width="2.8461" height="5.89417" fill="#BFE2E4"/>
<rect x="18.177" y="4.62109" width="2.8461" height="5.89417" fill="#BFE2E4"/>
<rect x="16.1143" y="0.349121" width="2.06265" height="1.66481" fill="#878787"/>
<rect x="3.90356" y="0.349121" width="3.07868" height="1.66481" fill="#878787"/>
<rect x="3.16309" width="4.53539" height="0.526375" fill="#B2B2B2"/>
<path d="M10.8198 4.62109L8.81836 9.05855V9.86036L11.2115 4.62109H10.8198Z" fill="white"/>
<path d="M6.1438 4.62109L4.13623 9.05855V9.86036L6.53552 4.62109H6.1438Z" fill="white"/>
<path d="M15.5022 4.62109L13.4946 9.05855V9.86036L15.8939 4.62109H15.5022Z" fill="white"/>
<path d="M10.8259 13.8999L8.81836 18.3312V19.133L11.2176 13.8999H10.8259Z" fill="white"/>
<path d="M20.1846 13.8999L18.177 18.3312V19.133L20.5763 13.8999H20.1846Z" fill="white"/>
<path d="M6.14378 13.8999L4.14233 18.3312V19.133L6.54162 13.8999H6.14378Z" fill="white"/>
<path d="M15.5083 13.8999L13.5007 18.3312V19.133L15.9 13.8999H15.5083Z" fill="white"/>
<path d="M10.8259 22.5181L8.81836 26.9494V27.7512L11.2176 22.5181H10.8259Z" fill="white"/>
<path d="M30.6204 15.8093V16.8437H29.9777V24.3231C28.9188 24.3231 28.1109 23.8825 27.4927 23.1969C27.2173 22.897 26.9786 22.542 26.7766 22.1626C26.7154 22.0524 26.6603 21.9422 26.6052 21.8259C26.3053 21.1833 26.085 20.4794 25.9258 19.7816C25.8463 19.4328 25.7789 19.0839 25.7238 18.7472C25.7055 18.631 25.6871 18.5208 25.6749 18.4106C25.5892 17.8169 25.5463 17.2722 25.5219 16.8376C25.5096 16.6417 25.5035 16.4704 25.5035 16.3296C25.4913 15.9991 25.4974 15.8032 25.4974 15.8032H30.6204V15.8093Z" fill="#7A6DEF"/>
<path d="M6.14378 22.5181L4.14233 26.9494V27.7512L6.54162 22.5181H6.14378Z" fill="white"/>
<path d="M15.5083 22.5181L13.5007 26.9494V27.7512L15.9 22.5181H15.5083Z" fill="white"/>
<path d="M20.1846 22.5181L18.177 26.9494V27.7512L20.5763 22.5181H20.1846Z" fill="white"/>
<path d="M20.1846 4.62109L18.177 9.05855V9.86036L20.5763 4.62109H20.1846Z" fill="white"/>
<rect x="4.13623" y="13.8999" width="2.85222" height="0.484848" fill="#5D5839"/>
<rect x="8.81836" y="13.8999" width="2.8461" height="0.484848" fill="#5D5839"/>
<rect x="13.4946" y="13.8999" width="2.85222" height="0.484848" fill="#5D5839"/>
<rect x="18.177" y="13.8999" width="2.8461" height="0.484848" fill="#5D5839"/>
<rect x="4.13623" y="22.5181" width="2.85222" height="0.484848" fill="#5D5839"/>
<rect x="8.81836" y="22.5181" width="2.8461" height="0.484848" fill="#5D5839"/>
<rect x="13.4946" y="22.5181" width="2.85222" height="0.484848" fill="#5D5839"/>
<rect x="18.177" y="22.5181" width="2.8461" height="0.484848" fill="#5D5839"/>
<rect x="4.13623" y="4.62109" width="2.85222" height="0.484848" fill="#5D5839"/>
<rect x="8.81836" y="4.62109" width="2.8461" height="0.484848" fill="#5D5839"/>
<rect x="13.4946" y="4.62109" width="2.85222" height="0.484848" fill="#5D5839"/>
<rect x="18.177" y="4.62109" width="2.8461" height="0.484848" fill="#5D5839"/>
<rect x="23.9304" y="24.8496" width="4.59048" height="0.336635" fill="#48452B"/>
<rect x="22.9878" y="18.417" width="6.54296" height="1.37102" fill="#BFE2E4"/>
<rect x="22.9878" y="18.417" width="6.54296" height="0.336635" fill="#5D5839"/>
<rect x="22.9878" y="21.832" width="6.54296" height="1.37102" fill="#BFE2E4"/>
<rect x="22.9878" y="21.832" width="6.54296" height="0.336635" fill="#5D5839"/>
<rect x="22.48" y="15.8096" width="8.14044" height="1.03439" fill="#B5C5F4"/>
</svg>
