<svg width="23" height="32" viewBox="0 0 23 32" fill="none" xmlns="http://www.w3.org/2000/svg">
<path d="M11.5664 3.479V3.479C7.30203 3.479 3.84009 6.93521 3.84009 11.1996V26.572H4.76862V11.2053C4.76862 7.45106 7.81215 4.41327 11.5607 4.41327C15.3149 4.41327 18.3527 7.45679 18.3527 11.2053V26.5777H19.2812V11.2053C19.2927 6.93521 15.8308 3.479 11.5664 3.479V3.479Z" fill="#E8AE4C"/>
<rect x="0.252197" y="26.5781" width="22.6287" height="1.54756" fill="#E8AE4C"/>
<rect x="0.252197" y="27.3521" width="22.6287" height="0.773778" fill="#EABC6B"/>
<rect x="1.79395" y="28.1255" width="0.750851" height="1.38134" fill="#E8AE4C"/>
<path d="M3.76006 30.4069C3.76006 31.2896 3.0436 32.0003 2.16665 32.0003C1.28397 32.0003 0.573242 31.2838 0.573242 30.4069C0.573242 29.5242 1.2897 28.8135 2.16665 28.8135C3.0436 28.8135 3.76006 29.5299 3.76006 30.4069Z" fill="#393939"/>
<path d="M3.04345 30.4067C3.04345 30.8882 2.65369 31.2837 2.1665 31.2837C1.68504 31.2837 1.28955 30.8939 1.28955 30.4067C1.28955 29.9253 1.67931 29.5298 2.1665 29.5298C2.64796 29.5355 3.04345 29.9253 3.04345 30.4067Z" fill="#5E5E5E"/>
<rect x="20.5942" y="28.1255" width="0.750851" height="1.38134" fill="#E8AE4C"/>
<path d="M22.5657 30.4069C22.5657 31.2896 21.8493 32.0003 20.9723 32.0003C20.0896 32.0003 19.3789 31.2838 19.3789 30.4069C19.3789 29.5242 20.0954 28.8135 20.9723 28.8135C21.8493 28.8135 22.5657 29.5299 22.5657 30.4069Z" fill="#393939"/>
<circle cx="20.9724" cy="30.4067" r="0.876948" fill="#5E5E5E"/>
<rect x="3.90332" y="14.2148" width="0.401218" height="1.34695" fill="#717877"/>
<rect x="6.86084" y="14.2148" width="0.401218" height="1.34695" fill="#717877"/>
<path d="M10.317 25.7009H0.98585C0.44134 25.7009 0 25.2595 0 24.715V16.5474C0 16.0029 0.44134 15.5615 0.98585 15.5615H10.317C10.8615 15.5615 11.3029 16.0029 11.3029 16.5474V24.7093C11.3029 25.2595 10.8615 25.7009 10.317 25.7009Z" fill="#291482"/>
<path d="M1.47876 25.7007V26.0389C1.47876 26.3369 1.71949 26.5776 2.01754 26.5776C2.31559 26.5776 2.55632 26.3369 2.55632 26.0389V25.7007H1.47876Z" fill="#929C9A"/>
<path d="M8.92432 25.7007V26.0389C8.92432 26.3369 9.16505 26.5776 9.46309 26.5776C9.76114 26.5776 10.0019 26.3369 10.0019 26.0389V25.7007H8.92432Z" fill="#929C9A"/>
<rect x="1.47876" y="25.7007" width="1.07756" height="0.338169" fill="#636968"/>
<rect x="8.92432" y="25.7007" width="1.07756" height="0.338169" fill="#636968"/>
<path d="M7.49138 14.1285V14.6157C7.49138 14.6902 7.43406 14.7475 7.35955 14.7475H3.8059C3.73139 14.7475 3.67407 14.6902 3.67407 14.6157V14.1285C3.67407 13.9508 3.84029 13.8018 4.0409 13.8018H7.11308C7.32516 13.8018 7.49138 13.9508 7.49138 14.1285Z" fill="#929C9A"/>
<rect x="10.8845" y="19.04" width="0.263658" height="0.88268" fill="#717877"/>
<rect x="12.8276" y="19.04" width="0.263658" height="0.88268" fill="#717877"/>
<path d="M15.0916 26.5778H8.97019C8.61483 26.5778 8.32251 26.2855 8.32251 25.9301V20.571C8.32251 20.2157 8.61483 19.9233 8.97019 19.9233H15.0916C15.447 19.9233 15.7393 20.2157 15.7393 20.571V25.9301C15.7393 26.2855 15.4527 26.5778 15.0916 26.5778Z" fill="#ACA2FF"/>
<rect x="9.88135" y="19.9233" width="0.527315" height="6.64876" fill="#616FB3"/>
<rect x="13.6528" y="19.9233" width="0.527315" height="6.64876" fill="#616FB3"/>
<path d="M13.2401 18.9831V19.304C13.2401 19.3499 13.2 19.39 13.1541 19.39H10.8213C10.7755 19.39 10.7354 19.3499 10.7354 19.304V18.9831C10.7354 18.8627 10.8443 18.771 10.9761 18.771H12.9936C13.1312 18.771 13.2401 18.8684 13.2401 18.9831Z" fill="#929C9A"/>
<rect x="12.8333" y="22.9263" width="8.50582" height="3.65108" fill="#616FB3"/>
<rect x="12.8333" y="22.9263" width="8.50582" height="1.82841" fill="#291482"/>
<rect x="13.9512" y="24.3823" width="0.796704" height="0.922801" fill="#929C9A"/>
<rect x="19.4248" y="24.3823" width="0.796704" height="0.922801" fill="#929C9A"/>
<rect x="18.1179" y="24.749" width="0.326706" height="1.08329" fill="#929C9A"/>
<rect x="15.7336" y="24.749" width="0.326706" height="1.08329" fill="#929C9A"/>
<path d="M15.55 25.9011V25.5114C15.55 25.4541 15.5959 25.4082 15.6532 25.4082H18.5133C18.5706 25.4082 18.6165 25.4541 18.6165 25.5114V25.9011C18.6165 26.0444 18.4847 26.1648 18.3185 26.1648H15.8424C15.6819 26.1648 15.55 26.0502 15.55 25.9011Z" fill="#717877"/>
<path d="M1.08887 13.9565V26.572H2.0174V13.9565C2.0174 8.68337 6.29324 4.40754 11.5664 4.40754C16.8395 4.40754 21.1154 8.68337 21.1154 13.9565V26.572H22.0439V13.9565C22.0439 8.16752 17.3554 3.479 11.5664 3.479C5.78312 3.479 1.08887 8.17325 1.08887 13.9565V13.9565Z" fill="#EABC6B"/>
<rect x="8.23657" y="6.35059" width="6.66595" height="0.928533" fill="#EABC6B"/>
<rect x="11.1023" y="1.27832" width="0.928533" height="5.53681" fill="#EABC6B"/>
<path d="M12.8447 1.27817C12.8447 1.98316 12.2715 2.55633 11.5665 2.55633C10.8615 2.55633 10.2883 1.98316 10.2883 1.27817C10.2883 0.573169 10.8615 0 11.5665 0C12.2715 0 12.8447 0.573169 12.8447 1.27817V1.27817Z" fill="#EABC6B"/>
</svg>
