<svg width="30" height="32" viewBox="0 0 30 32" fill="none" xmlns="http://www.w3.org/2000/svg">
<rect y="30.6914" width="29.4268" height="1.3085" fill="#EABC6B"/>
<path d="M19.7667 0H9.55067C9.45715 0 9.38013 0.117179 9.38013 0.253888V9.40363V10.6535C9.38013 10.9367 9.53417 11.1711 9.72671 11.1711H19.5907C19.7832 11.1711 19.9373 10.9367 19.9373 10.6535V9.40363V0.253888C19.9373 0.117179 19.8602 0 19.7667 0Z" fill="#C6E5E5"/>
<path opacity="0.3" d="M9.54529 11.1028C9.6003 11.1517 9.66082 11.181 9.72683 11.181H19.5908C19.7833 11.181 19.9374 10.9466 19.9374 10.6634V9.4135V8.32959C16.8071 9.86268 13.2862 10.8294 9.54529 11.1028Z" fill="white"/>
<path d="M15.7232 13.3192H13.5392L13.7757 4.41356C13.7757 4.32568 13.8253 4.26709 13.8858 4.26709H15.2886C15.3491 4.26709 15.3986 4.33544 15.3986 4.41356L15.7232 13.3192Z" fill="#291482"/>
<path d="M16.2183 13.6611C16.2183 13.6904 16.2018 13.7099 16.1853 13.7099H12.967C12.9505 13.7099 12.934 13.6904 12.934 13.6611V13.4853C12.934 13.3974 12.9835 13.3193 13.044 13.3193H16.1083C16.1688 13.3193 16.2183 13.3877 16.2183 13.4853V13.6611Z" fill="#291482"/>
<rect x="28.2058" y="15.1519" width="26.9897" height="1.45498" transform="rotate(-180 28.2058 15.1519)" fill="#B5C5F4"/>
<path d="M27.0284 20.7701V26.3849V31.9998H19.7831V26.3849V20.7701V15.1553H27.0284V20.7701Z" fill="#7A6DEF"/>
<path d="M9.63849 15.1553V20.7701V26.3849V31.9998H2.39319V26.3849V20.7701V15.1553H9.63849Z" fill="#7A6DEF"/>
<rect x="19.7831" y="25.876" width="10.1445" height="10.7219" transform="rotate(-180 19.7831 25.876)" fill="#ACA2FF"/>
<rect x="27.0286" y="15.6353" width="24.6406" height="0.488247" transform="rotate(-180 27.0286 15.6353)" fill="#616FB3"/>
</svg>
