<svg width="32" height="24" viewBox="0 0 32 24" fill="none" xmlns="http://www.w3.org/2000/svg">
<rect y="23.0186" width="32" height="0.981385" fill="#EABC6B"/>
<path d="M22.7738 0H9.22616C9.10214 0 9 0.0839161 9 0.181818V6.73427V7.62937C9 7.83217 9.20427 8 9.45961 8H22.5404C22.7957 8 23 7.83217 23 7.62937V6.73427V0.181818C23 0.0839161 22.8979 0 22.7738 0Z" fill="#C6E5E5"/>
<path opacity="0.3" d="M12 7.94521C12.0582 7.97945 12.1223 8 12.1922 8H22.6331C22.837 8 23 7.83562 23 7.63699V6.76027V6C19.6866 7.07534 15.9598 7.75342 12 7.94521Z" fill="white"/>
<path d="M17 10.5H15L15.2166 3.12136C15.2166 3.04854 15.262 3 15.3174 3H16.602C16.6574 3 16.7028 3.05663 16.7028 3.12136L17 10.5Z" fill="#291482"/>
<path d="M18 10.4375C18 10.475 17.9799 10.5 17.9598 10.5H14.0402C14.0201 10.5 14 10.475 14 10.4375V10.2125C14 10.1 14.0603 10 14.134 10H17.866C17.9397 10 18 10.0875 18 10.2125V10.4375Z" fill="#291482"/>
<rect x="30.6721" y="11.3643" width="29.3498" height="1.09124" transform="rotate(-180 30.6721 11.3643)" fill="#B5C5F4"/>
<path d="M29.3918 15.5779V19.789V24.0002H21.5129V19.789V15.5779V11.3667H29.3918V15.5779Z" fill="#7A6DEF"/>
<path d="M10.4813 11.3667V15.5779V19.789V24.0002H2.60242V19.789V15.5779V11.3667H10.4813Z" fill="#7A6DEF"/>
<rect x="21.5129" y="19.4072" width="11.0316" height="8.0415" transform="rotate(-180 21.5129 19.4072)" fill="#ACA2FF"/>
<rect x="29.392" y="11.7266" width="26.7953" height="0.366189" transform="rotate(-180 29.392 11.7266)" fill="#616FB3"/>
</svg>
