<svg width="31" height="32" viewBox="0 0 31 32" fill="none" xmlns="http://www.w3.org/2000/svg">
<path d="M9.07968 8.00505L5.15479 9.48191L5.20076 2.51709L9.11416 2.54008L9.07968 8.00505Z" fill="#291482"/>
<path d="M27.2789 31.9911L2.76416 31.8302L2.90208 11.6139L14.9009 2.44238L27.4169 11.7748L27.2789 31.9911Z" fill="#ACA2FF"/>
<path d="M14.9392 25.4624L14.985 18.6298L23.9841 18.6901L23.9383 25.5228L14.9392 25.4624Z" fill="#C6E5E5"/>
<path opacity="0.3" d="M23.9402 25.5205L23.9862 18.6878L14.9871 18.6304L23.9402 25.5205Z" fill="white"/>
<path opacity="0.3" d="M14.9583 0.758789L2.90775 10.7405L2.88477 14.085L14.9295 4.35613L27.3995 14.2459L27.4168 11.3612L14.9583 0.758789Z" fill="#9CA6C2"/>
<path d="M15.2341 0L0 12.0333L2.48826 13.7687L15.2111 3.71802L27.8018 13.9354L30.3073 12.2402L15.2341 0Z" fill="#7A6DEF"/>
<path d="M1.52979 31.8174L1.53836 30.5416L28.6563 30.724L28.6478 31.9997L1.52979 31.8174Z" fill="#EABC6B"/>
<path d="M5.22607 30.5806L5.28639 21.6447L11.6651 21.6877L11.6047 30.6236L5.22607 30.5806Z" fill="#291482"/>
<path opacity="0.3" d="M11.0851 22.4287H10.7748L7.80957 25.348L8.23482 25.3537L11.0851 22.5436V22.4287Z" fill="white"/>
<path d="M5.84326 25.3345L5.86299 22.3922L11.0866 22.4273L11.0669 25.3695L5.84326 25.3345Z" fill="#C6E5E5"/>
<path opacity="0.3" d="M11.0852 25.2331L8.23486 22.4287L11.0679 22.4058L11.0852 25.2331Z" fill="white"/>
<path opacity="0.3" d="M7.7351 25.3713L5.85023 23.5094L5.84448 23.1416L8.10288 25.3713H7.7351Z" fill="white"/>
<path opacity="0.5" d="M12.146 13.4243L12.1498 12.8554L17.6033 12.8919L17.5995 13.4608L12.146 13.4243Z" fill="#9CA6C2"/>
<path d="M17.2395 12.9527L17.2625 9.71168C17.274 8.40722 16.2166 7.34411 14.9179 7.33261C13.6135 7.32112 12.5503 8.37848 12.5389 9.67721L12.5159 12.9183L17.2395 12.9527Z" fill="#BEBDC4"/>
<path d="M17.0385 12.9526L17.0615 9.71155C17.0672 8.51626 16.1075 7.53935 14.9122 7.52786C13.717 7.52211 12.74 8.48179 12.7286 9.67707L12.7056 12.9181L17.0385 12.9526Z" fill="#C6E5E5"/>
<path d="M12.1477 13.1899L12.1515 12.621L17.605 12.6575L17.6012 13.2264L12.1477 13.1899Z" fill="#616FB3"/>
<path opacity="0.4" d="M17.0616 10.9584L13.8953 7.74609L14.1768 7.75184L17.0616 10.6711V10.9584Z" fill="#8CC1EA"/>
<path d="M14.8204 7.53382V7.57404L14.786 7.53956C14.7975 7.53382 14.8089 7.53382 14.8204 7.53382Z" fill="#8CC1EA"/>
<path d="M2.47241 15.5762L2.47577 15.0762L27.7951 15.2463L27.7917 15.7463L2.47241 15.5762Z" fill="#616FB3"/>
<path d="M5.22217 31.8413L5.23042 30.5771L11.6091 30.6187L11.6008 31.883L5.22217 31.8413Z" fill="#5C95BE"/>
<path d="M4.17798 2.80811L4.18859 1.23355L10.1363 1.27364L10.1257 2.8482L4.17798 2.80811Z" fill="#7A6DEF"/>
</svg>
