<svg width="47" height="20" viewBox="0 0 47 20" fill="none" xmlns="http://www.w3.org/2000/svg">
<path d="M41.8278 14.2568H41.8766L44.4811 6.00781H46.7302L42.8532 16.6875C41.9657 19.1363 40.9491 19.9402 38.7995 19.9404C38.6321 19.9404 38.0901 19.9215 37.9411 19.8828V18.207C38.0797 18.2261 38.4153 18.2461 38.5925 18.2461C39.5684 18.2459 40.1214 17.8391 40.4567 16.7939L40.654 16.1738L36.9157 6.00781H39.2233L41.8278 14.2568Z" fill="white"/>
<path d="M9.33563 4.76953C9.82956 4.80708 11.2512 4.95662 12.1608 6.27734C12.0823 6.33538 10.4738 7.24774 10.4929 9.16406C10.512 11.4544 12.5402 12.2187 12.5593 12.2373C12.5393 12.2967 12.2359 13.3198 11.4977 14.3789C10.8531 15.3103 10.1881 16.2232 9.12665 16.2422C8.10311 16.2607 7.76069 15.6459 6.58661 15.6455C5.41112 15.6455 5.03079 16.2231 4.06415 16.2607C3.04051 16.2976 2.26254 15.2724 1.61786 14.3418C0.29035 12.4605 -0.713874 9.03447 0.651063 6.72461C1.3149 5.56999 2.52859 4.84307 3.83661 4.82422C4.8412 4.80658 5.77072 5.47749 6.37762 5.47754C6.98459 5.47692 8.06549 4.69525 9.33563 4.76953Z" fill="white"/>
<path fill-rule="evenodd" clip-rule="evenodd" d="M31.8932 5.88184C34.4179 5.88208 36.0651 7.17977 36.0651 9.19336V16.1445H34.0241V14.4697H33.9743C33.3924 15.5635 32.1098 16.2507 30.7194 16.251C28.6682 16.2509 27.2382 15.0504 27.238 13.25C27.238 11.4587 28.6287 10.4322 31.1931 10.2773L33.945 10.1133V9.33789C33.9448 8.20564 33.1849 7.58628 31.8347 7.58594C30.7201 7.58594 29.9106 8.14724 29.7429 9.00879H27.7507C27.8102 7.19836 29.546 5.8819 31.8932 5.88184ZM30.9753 11.8135C29.5944 11.9005 28.8747 12.404 28.8747 13.2852C28.8749 14.1369 29.6241 14.6884 30.7975 14.6885C32.2967 14.6885 33.4313 13.7493 33.4313 12.4424V11.6582L30.9753 11.8135Z" fill="white"/>
<path fill-rule="evenodd" clip-rule="evenodd" d="M22.0036 2.17285C24.7649 2.17318 26.6891 4.04226 26.6891 6.7627C26.6889 9.49246 24.7258 11.3715 21.9352 11.3721H18.8766V16.1445H16.6677V2.17285H22.0036ZM18.8766 9.55078H21.4118C23.3346 9.55053 24.4292 8.53418 24.4294 6.77246C24.4294 5.01062 23.3347 4.00315 21.4216 4.00293H18.8766V9.55078Z" fill="white"/>
<path d="M9.3454 0C9.44046 0.89672 9.07982 1.77515 8.54755 2.42871C7.99615 3.06387 7.12135 3.56718 6.24677 3.49316C6.13274 2.63391 6.56983 1.71946 7.06415 1.15918C7.61476 0.505048 8.56606 0.0381694 9.3454 0Z" fill="white"/>
</svg>
