<svg width="32" height="32" viewBox="0 0 32 32" fill="none" xmlns="http://www.w3.org/2000/svg">
<path d="M21.1467 3.34019C21.83 4.05518 20.69 6.81516 20.01 8.28348H11.9418C10.1334 4.93018 10.3051 3.04186 10.5668 2.77686C10.5668 2.77686 10.5668 2.77686 10.5668 2.77353C10.5818 2.75853 10.5968 2.7502 10.6101 2.74686C11.1351 2.60353 11.5951 3.14353 12.0434 3.33852C12.3734 3.48186 12.8101 3.60519 13.1651 3.49686C13.5384 3.38019 13.7417 3.25686 14.1334 3.36519C14.4967 3.46352 14.6184 3.91185 14.9817 4.04185C15.1484 4.10185 15.3317 4.09852 15.5101 4.09352C15.8484 4.08518 16.2334 4.07852 16.53 3.89185C16.6784 3.79852 16.775 3.64686 16.9117 3.53519C17.0534 3.41852 17.1567 3.40519 17.3217 3.36519C17.7684 3.25686 18.1117 3.91019 18.5384 3.71519C18.6484 3.66686 18.7217 3.56186 18.82 3.51686C18.9217 3.47186 19.045 3.49186 19.1583 3.50852C19.44 3.55186 19.6883 3.50352 19.8567 3.33186C20.0117 3.17519 20.1933 2.78686 20.5317 2.88853C20.795 2.96686 20.9783 3.21019 21.1433 3.33686L21.1467 3.34019Z" fill="#FF8CF9"/>
<path d="M19.4884 9.10178C23.8666 11.6101 27.3683 17.9367 27.3683 22.8133C27.3683 29.0366 22.2783 29.9999 16.0001 29.9999C9.72179 29.9999 4.63184 29.0382 4.63184 22.8133C4.63184 17.9367 8.1568 11.6118 12.5351 9.10178H19.4884Z" fill="#FF8CF9"/>
<path d="M12.0468 3.3402C11.5985 3.14687 11.1385 2.60521 10.6135 2.74854C10.5985 2.75354 10.5852 2.76187 10.5702 2.7752C10.7452 2.46187 10.8702 2.35188 11.1385 2.21354C11.4085 2.07521 11.4618 2.08354 11.7585 2.14021C12.0568 2.19688 12.3552 2.28021 12.6585 2.24354C13.0402 2.19854 13.3985 1.96188 13.7785 2.00521C14.1768 2.04854 14.5068 2.39354 14.9085 2.39354C15.3151 2.39354 15.6501 2.04854 16.0535 2.00855C16.4551 1.96855 16.8201 2.24021 17.2168 2.30688C17.6751 2.38187 18.1301 2.18354 18.5884 2.10188C18.9918 2.03021 19.4134 2.05021 19.8084 2.16021C20.1018 2.24188 20.6284 2.45187 21.1484 3.33853C20.9834 3.2102 20.8018 2.96854 20.5384 2.8902C20.2018 2.78854 20.0184 3.17687 19.8634 3.33353C19.6934 3.50686 19.4468 3.55353 19.1651 3.5102C19.0518 3.49353 18.9284 3.4702 18.8268 3.51853C18.7268 3.56353 18.6551 3.66853 18.5451 3.71686C18.1185 3.91019 17.7735 3.25853 17.3285 3.36687C17.1635 3.40853 17.0601 3.4202 16.9185 3.53686C16.7818 3.64853 16.6851 3.79853 16.5368 3.89353C16.2401 4.08019 15.8535 4.08686 15.5168 4.09519C15.3401 4.10019 15.1551 4.10352 14.9885 4.04353C14.6252 3.91353 14.5035 3.46353 14.1402 3.36687C13.7468 3.2602 13.5435 3.38187 13.1718 3.49853C12.8152 3.60853 12.3785 3.48353 12.0485 3.34187L12.0468 3.3402Z" fill="#FF8CF9"/>
<path d="M22.1301 26.6634L21.2767 24.1217C21.1818 23.8784 20.9284 23.7351 20.6701 23.7818C20.4118 23.8284 20.2234 24.0501 20.2201 24.3117C20.2201 24.3751 20.2301 24.4384 20.2534 24.4967L21.0918 26.9917C21.1734 27.2467 21.4267 27.4051 21.6934 27.3667C21.9584 27.3284 22.1567 27.1034 22.1617 26.8367C22.1617 26.7801 22.1534 26.7234 22.1367 26.6701L22.1334 26.6667L22.1301 26.6634Z" fill="#1A116C"/>
<path d="M23.6701 26.6634L23.1634 25.1484C23.0684 24.9034 22.8134 24.7617 22.5534 24.8084C22.2934 24.855 22.1068 25.08 22.1051 25.3417C22.1051 25.405 22.1151 25.4667 22.1351 25.5267L22.6234 26.9784C22.7001 27.24 22.9584 27.4033 23.2284 27.365C23.4984 27.325 23.6984 27.0933 23.6968 26.8217C23.6968 26.765 23.6884 26.7084 23.6718 26.655V26.6617L23.6701 26.6634Z" fill="#1A116C"/>
<path d="M24.4868 24.4834L24.4534 24.4184C24.2968 24.19 24.1018 23.99 23.8768 23.8267C23.8018 23.7684 23.7018 23.755 23.6134 23.79C23.5268 23.8234 23.4634 23.8984 23.4451 23.99C23.3868 24.2667 23.3868 24.5517 23.4451 24.8284C23.4568 24.8684 23.4735 24.9067 23.4918 24.945C23.5901 25.1167 23.7734 25.2234 23.9734 25.225C24.0384 25.225 24.1018 25.2117 24.1634 25.1884C24.3018 25.1384 24.4118 25.035 24.4701 24.9017C24.5284 24.77 24.5334 24.62 24.4851 24.4834H24.4868Z" fill="#1A116C"/>
<path d="M17.8483 9.20849C17.83 10.3068 19.07 11.1318 19.57 12.0135C20.0617 12.8801 20.0883 13.7901 20.0567 14.7651C20.065 14.5501 21.0483 14.3618 21.055 14.1318C21.0883 13.1585 21.0616 12.2468 20.5683 11.3801C20.0683 10.5018 18.83 9.67515 18.8467 8.57516C18.8433 8.78516 17.8517 8.98516 17.8483 9.20849Z" fill="#1A116C"/>
<path d="M18.4684 9.58178C19.4901 9.20178 20.2001 10.0168 20.8917 10.6401C21.1984 10.9151 21.5334 11.1801 21.9384 11.2901C22.3934 11.4134 22.8667 11.3251 23.33 11.3768C24.2983 11.4834 24.5133 12.2234 24.9283 12.9667C25.3933 13.8034 26.1367 14.4134 27.1117 14.4934C27.0033 14.4834 26.98 13.3517 26.8533 13.3401C25.9283 13.2651 25.1917 12.7067 24.73 11.9134C24.2833 11.1501 24.085 10.3418 23.0734 10.2234C22.1267 10.1134 21.495 10.2368 20.7184 9.56344C19.9917 8.93345 19.2817 8.03012 18.2101 8.42679C18.1534 8.44845 18.5117 9.56511 18.4684 9.58011V9.58178Z" fill="#1A116C"/>
<path d="M11.9435 8.28348H20.0101C19.7501 8.84514 19.5584 9.21847 19.5584 9.21847H12.4785C12.2835 8.89514 12.1068 8.58347 11.9435 8.28348Z" fill="#1A116C"/>
</svg>
