<svg width="32" height="32" viewBox="0 0 32 32" fill="none" xmlns="http://www.w3.org/2000/svg">
<path d="M9.65039 17.925C9.65039 19.5662 13.9563 20.8897 19.268 20.8897C24.5798 20.8897 28.8857 19.5573 28.8857 17.925V14.8809" stroke="#291482" stroke-miterlimit="10" stroke-linecap="round"/>
<path d="M9.65039 16.8486V17.8898" stroke="#291482" stroke-miterlimit="10" stroke-linecap="round"/>
<path d="M14.5566 7.32764C17.2485 7.32767 19.7028 7.66401 21.499 8.21826C22.3945 8.49461 23.1518 8.83312 23.6943 9.229C24.2274 9.61798 24.6328 10.124 24.6328 10.7427C24.6328 10.8331 24.6229 10.9208 24.6064 11.0063V14.1226C24.6064 14.1559 24.6018 14.1881 24.5947 14.2192C24.5687 14.8095 24.1747 15.2942 23.6602 15.6694C23.1184 16.0644 22.3625 16.402 21.4688 16.6772C19.6757 17.2294 17.2251 17.564 14.5381 17.564C11.8508 17.5639 9.40035 17.2267 7.60742 16.6733C6.71394 16.3976 5.95846 16.0608 5.41699 15.6665C4.88533 15.2793 4.47965 14.7744 4.47949 14.1577C4.47949 14.1519 4.48025 14.1459 4.48047 14.1401C4.48023 14.1343 4.4795 14.1285 4.47949 14.1226V10.9634C4.47949 10.9357 4.48242 10.9086 4.4873 10.8823C4.4827 10.8364 4.4795 10.7899 4.47949 10.7427C4.47949 10.124 4.88493 9.61797 5.41797 9.229C5.96055 8.83312 6.7178 8.49461 7.61328 8.21826C9.40959 7.66397 11.8646 7.32764 14.5566 7.32764ZM5.3623 14.1226C5.3623 14.1285 5.36059 14.1343 5.36035 14.1401C5.36057 14.1459 5.3623 14.1519 5.3623 14.1577C5.36247 14.3569 5.49529 14.6312 5.93652 14.9526C6.3683 15.2671 7.02167 15.5693 7.86816 15.8306C9.55588 16.3514 11.9142 16.6811 14.5381 16.6812C17.1624 16.6812 19.5212 16.3532 21.209 15.8335C22.0554 15.5728 22.709 15.2712 23.1406 14.9565C23.5811 14.6353 23.7147 14.3598 23.7148 14.1577C23.7148 14.1274 23.7178 14.0974 23.7236 14.0688V12.2329C23.7136 12.2404 23.7044 12.249 23.6943 12.2563C23.1518 12.6522 22.3945 12.9907 21.499 13.2671C19.7028 13.8213 17.2484 14.1577 14.5566 14.1577C11.8646 14.1577 9.40958 13.8214 7.61328 13.2671C6.7178 12.9907 5.96055 12.6522 5.41797 12.2563C5.39884 12.2424 5.38109 12.2267 5.3623 12.2124V14.1226Z" fill="#291482"/>
<path d="M16.0738 20.7309C10.065 20.9515 4.9209 19.4956 4.9209 17.8456C4.9209 17.078 5.91797 16.4515 7.2062 16.1074" stroke="#291482" stroke-miterlimit="10" stroke-linecap="round"/>
<path d="M24.1562 21.2603C24.1562 22.9014 19.8503 24.2249 14.5385 24.2249C9.22679 24.2249 4.9209 22.8926 4.9209 21.2603" stroke="#291482" stroke-miterlimit="10" stroke-linecap="round"/>
<path d="M4.9209 18.0664V21.2252" stroke="#291482" stroke-miterlimit="10" stroke-linecap="round"/>
<path d="M24.165 20.5278V21.2249" stroke="#291482" stroke-miterlimit="10" stroke-linecap="round"/>
<path d="M24.1121 11.9336C26.9886 12.4454 28.9209 13.4072 28.9209 14.5101C28.9209 16.1513 24.6062 17.4836 19.2857 17.4836C17.5474 17.4836 16.3209 17.3866 14.9092 17.1395" stroke="#291482" stroke-miterlimit="10" stroke-linecap="round"/>
</svg>
