<svg width="60" height="42" viewBox="0 0 60 42" fill="none" xmlns="http://www.w3.org/2000/svg">
<ellipse cx="30" cy="34" rx="22" ry="2" fill="#EFEFF4"/>
<path d="M41.1467 7.34018C41.83 8.05517 40.69 10.8151 40.01 12.2835H31.9418C30.1334 8.93016 30.3051 7.04185 30.5668 6.77685C30.5668 6.77685 30.5668 6.77685 30.5668 6.77352C30.5818 6.75852 30.5968 6.75018 30.6101 6.74685C31.1351 6.60352 31.5951 7.14351 32.0434 7.33851C32.3734 7.48184 32.8101 7.60517 33.1651 7.49684C33.5384 7.38018 33.7417 7.25684 34.1334 7.36518C34.4967 7.46351 34.6184 7.91184 34.9817 8.04184C35.1484 8.10184 35.3317 8.0985 35.5101 8.0935C35.8484 8.08517 36.2334 8.0785 36.53 7.89184C36.6784 7.79851 36.775 7.64684 36.9117 7.53517C37.0534 7.41851 37.1567 7.40518 37.3217 7.36518C37.7684 7.25684 38.1117 7.91017 38.5384 7.71517C38.6484 7.66684 38.7217 7.56184 38.82 7.51684C38.9217 7.47184 39.045 7.49184 39.1583 7.50851C39.44 7.55184 39.6883 7.50351 39.8567 7.33184C40.0117 7.17518 40.1933 6.78685 40.5317 6.88851C40.795 6.96685 40.9783 7.21018 41.1433 7.33684L41.1467 7.34018Z" fill="#FF8CF9"/>
<path d="M39.4883 13.1018C43.8666 15.6101 47.3682 21.9367 47.3682 26.8133C47.3682 33.0366 42.2783 33.9999 36 33.9999C29.7217 33.9999 24.6318 33.0383 24.6318 26.8133C24.6318 21.9367 28.1567 15.6118 32.535 13.1018H39.4883Z" fill="#FF8CF9"/>
<path d="M32.0467 7.3402C31.5984 7.14687 31.1384 6.60521 30.6134 6.74854C30.5984 6.75354 30.5851 6.76187 30.5701 6.7752C30.7451 6.46187 30.8701 6.35188 31.1384 6.21354C31.4084 6.07521 31.4617 6.08354 31.7584 6.14021C32.0567 6.19688 32.3551 6.28021 32.6584 6.24354C33.04 6.19854 33.3984 5.96188 33.7784 6.00521C34.1767 6.04854 34.5067 6.39354 34.9084 6.39354C35.315 6.39354 35.65 6.04854 36.0533 6.00855C36.455 5.96855 36.82 6.24021 37.2167 6.30688C37.675 6.38187 38.13 6.18354 38.5883 6.10188C38.9917 6.03021 39.4133 6.05021 39.8083 6.16021C40.1016 6.24188 40.6283 6.45187 41.1483 7.33853C40.9833 7.2102 40.8016 6.96854 40.5383 6.8902C40.2016 6.78854 40.0183 7.17687 39.8633 7.33353C39.6933 7.50686 39.4466 7.55353 39.165 7.5102C39.0517 7.49353 38.9283 7.4702 38.8267 7.51853C38.7267 7.56353 38.655 7.66853 38.545 7.71686C38.1183 7.91019 37.7733 7.25853 37.3283 7.36687C37.1633 7.40853 37.06 7.4202 36.9183 7.53686C36.7817 7.64853 36.685 7.79853 36.5367 7.89353C36.24 8.08019 35.8533 8.08686 35.5167 8.09519C35.34 8.10019 35.155 8.10352 34.9884 8.04353C34.625 7.91353 34.5034 7.46353 34.14 7.36687C33.7467 7.2602 33.5434 7.38187 33.1717 7.49853C32.815 7.60853 32.3784 7.48353 32.0484 7.34187L32.0467 7.3402Z" fill="#FF8CF9"/>
<path d="M42.13 30.6634L41.2766 28.1217C41.1816 27.8784 40.9283 27.7351 40.67 27.7818C40.4116 27.8284 40.2233 28.0501 40.22 28.3117C40.22 28.3751 40.23 28.4384 40.2533 28.4967L41.0916 30.9917C41.1733 31.2467 41.4266 31.4051 41.6933 31.3667C41.9583 31.3284 42.1566 31.1034 42.1616 30.8367C42.1616 30.7801 42.1533 30.7234 42.1366 30.6701L42.1333 30.6667L42.13 30.6634Z" fill="#1A116C"/>
<path d="M43.67 30.6634L43.1633 29.1484C43.0683 28.9034 42.8133 28.7617 42.5533 28.8084C42.2933 28.8551 42.1066 29.0801 42.105 29.3417C42.105 29.405 42.115 29.4667 42.135 29.5267L42.6233 30.9784C42.7 31.24 42.9583 31.4034 43.2283 31.365C43.4983 31.325 43.6983 31.0934 43.6966 30.8217C43.6966 30.765 43.6883 30.7084 43.6716 30.655V30.6617L43.67 30.6634Z" fill="#1A116C"/>
<path d="M44.4866 28.4834L44.4533 28.4184C44.2966 28.1901 44.1016 27.9901 43.8766 27.8267C43.8016 27.7684 43.7016 27.7551 43.6133 27.7901C43.5266 27.8234 43.4633 27.8984 43.4449 27.9901C43.3866 28.2667 43.3866 28.5517 43.4449 28.8284C43.4566 28.8684 43.4733 28.9067 43.4916 28.9451C43.5899 29.1167 43.7733 29.2234 43.9733 29.2251C44.0383 29.2251 44.1016 29.2117 44.1633 29.1884C44.3016 29.1384 44.4116 29.0351 44.4699 28.9017C44.5283 28.7701 44.5333 28.6201 44.4849 28.4834H44.4866Z" fill="#1A116C"/>
<path d="M37.8483 13.2085C37.83 14.3068 39.07 15.1318 39.57 16.0135C40.0617 16.8801 40.0883 17.7901 40.0567 18.7651C40.065 18.5501 41.0483 18.3618 41.055 18.1318C41.0883 17.1585 41.0616 16.2468 40.5683 15.3801C40.0683 14.5018 38.83 13.6752 38.8467 12.5752C38.8433 12.7852 37.8517 12.9852 37.8483 13.2085Z" fill="#1A116C"/>
<path d="M38.4683 13.5818C39.49 13.2018 40.2 14.0168 40.8917 14.6401C41.1983 14.9151 41.5333 15.1801 41.9383 15.2901C42.3933 15.4134 42.8666 15.3251 43.33 15.3767C44.2983 15.4834 44.5133 16.2234 44.9283 16.9667C45.3933 17.8034 46.1366 18.4134 47.1116 18.4934C47.0033 18.4834 46.9799 17.3517 46.8533 17.3401C45.9283 17.2651 45.1916 16.7067 44.7299 15.9134C44.2833 15.1501 44.085 14.3418 43.0733 14.2234C42.1266 14.1134 41.495 14.2368 40.7183 13.5634C39.9917 12.9334 39.2817 12.0301 38.21 12.4268C38.1533 12.4484 38.5117 13.5651 38.4683 13.5801V13.5818Z" fill="#1A116C"/>
<path d="M31.9434 12.2835H40.01C39.75 12.8451 39.5583 13.2185 39.5583 13.2185H32.4784C32.2834 12.8951 32.1068 12.5835 31.9434 12.2835Z" fill="#1A116C"/>
<path d="M29.1467 9.34018C29.83 10.0552 28.69 12.8151 28.01 14.2835H19.9418C18.1334 10.9302 18.3051 9.04185 18.5668 8.77685C18.5668 8.77685 18.5668 8.77685 18.5668 8.77352C18.5818 8.75852 18.5968 8.75018 18.6101 8.74685C19.1351 8.60352 19.5951 9.14351 20.0434 9.33851C20.3734 9.48184 20.8101 9.60517 21.1651 9.49684C21.5384 9.38018 21.7417 9.25684 22.1334 9.36518C22.4967 9.46351 22.6184 9.91184 22.9817 10.0418C23.1484 10.1018 23.3317 10.0985 23.5101 10.0935C23.8484 10.0852 24.2334 10.0785 24.53 9.89184C24.6784 9.79851 24.775 9.64684 24.9117 9.53517C25.0534 9.41851 25.1567 9.40518 25.3217 9.36518C25.7684 9.25684 26.1117 9.91017 26.5384 9.71517C26.6484 9.66684 26.7217 9.56184 26.82 9.51684C26.9217 9.47184 27.045 9.49184 27.1583 9.50851C27.44 9.55184 27.6883 9.50351 27.8567 9.33184C28.0117 9.17518 28.1933 8.78685 28.5317 8.88851C28.795 8.96685 28.9783 9.21018 29.1433 9.33684L29.1467 9.34018Z" fill="#A4FF00"/>
<path d="M27.4883 15.1018C31.8666 17.6101 35.3682 23.9367 35.3682 28.8133C35.3682 35.0366 30.2783 35.9999 24 35.9999C17.7217 35.9999 12.6318 35.0383 12.6318 28.8133C12.6318 23.9367 16.1567 17.6118 20.535 15.1018H27.4883Z" fill="#A4FF00"/>
<path d="M20.0467 9.3402C19.5984 9.14687 19.1384 8.60521 18.6134 8.74854C18.5984 8.75354 18.5851 8.76187 18.5701 8.7752C18.7451 8.46187 18.8701 8.35188 19.1384 8.21354C19.4084 8.07521 19.4617 8.08354 19.7584 8.14021C20.0567 8.19688 20.3551 8.28021 20.6584 8.24354C21.04 8.19854 21.3984 7.96188 21.7784 8.00521C22.1767 8.04854 22.5067 8.39354 22.9084 8.39354C23.315 8.39354 23.65 8.04854 24.0533 8.00855C24.455 7.96855 24.82 8.24021 25.2167 8.30688C25.675 8.38187 26.13 8.18354 26.5883 8.10188C26.9917 8.03021 27.4133 8.05021 27.8083 8.16021C28.1016 8.24188 28.6283 8.45187 29.1483 9.33853C28.9833 9.2102 28.8016 8.96854 28.5383 8.8902C28.2016 8.78854 28.0183 9.17687 27.8633 9.33353C27.6933 9.50686 27.4466 9.55353 27.165 9.5102C27.0517 9.49353 26.9283 9.4702 26.8267 9.51853C26.7267 9.56353 26.655 9.66853 26.545 9.71686C26.1183 9.91019 25.7733 9.25853 25.3283 9.36687C25.1633 9.40853 25.06 9.4202 24.9183 9.53686C24.7817 9.64853 24.685 9.79853 24.5367 9.89353C24.24 10.0802 23.8533 10.0869 23.5167 10.0952C23.34 10.1002 23.155 10.1035 22.9884 10.0435C22.625 9.91353 22.5034 9.46353 22.14 9.36687C21.7467 9.2602 21.5434 9.38187 21.1717 9.49853C20.815 9.60853 20.3784 9.48353 20.0484 9.34187L20.0467 9.3402Z" fill="#A4FF00"/>
<path d="M30.13 32.6634L29.2766 30.1217C29.1816 29.8784 28.9283 29.7351 28.67 29.7818C28.4116 29.8284 28.2233 30.0501 28.22 30.3117C28.22 30.3751 28.23 30.4384 28.2533 30.4967L29.0916 32.9917C29.1733 33.2467 29.4266 33.4051 29.6933 33.3667C29.9583 33.3284 30.1566 33.1034 30.1616 32.8367C30.1616 32.7801 30.1533 32.7234 30.1366 32.6701L30.1333 32.6667L30.13 32.6634Z" fill="#1A116C"/>
<path d="M31.67 32.6634L31.1633 31.1484C31.0683 30.9034 30.8133 30.7617 30.5533 30.8084C30.2933 30.8551 30.1066 31.0801 30.105 31.3417C30.105 31.405 30.115 31.4667 30.135 31.5267L30.6233 32.9784C30.7 33.24 30.9583 33.4034 31.2283 33.365C31.4983 33.325 31.6983 33.0934 31.6966 32.8217C31.6966 32.765 31.6883 32.7084 31.6716 32.655V32.6617L31.67 32.6634Z" fill="#1A116C"/>
<path d="M32.4866 30.4834L32.4533 30.4184C32.2966 30.1901 32.1016 29.9901 31.8766 29.8267C31.8016 29.7684 31.7016 29.7551 31.6133 29.7901C31.5266 29.8234 31.4633 29.8984 31.4449 29.9901C31.3866 30.2667 31.3866 30.5517 31.4449 30.8284C31.4566 30.8684 31.4733 30.9067 31.4916 30.9451C31.5899 31.1167 31.7733 31.2234 31.9733 31.2251C32.0383 31.2251 32.1016 31.2117 32.1633 31.1884C32.3016 31.1384 32.4116 31.0351 32.4699 30.9017C32.5283 30.7701 32.5333 30.6201 32.4849 30.4834H32.4866Z" fill="#1A116C"/>
<path d="M25.8483 15.2085C25.83 16.3068 27.07 17.1318 27.57 18.0135C28.0617 18.8801 28.0883 19.7901 28.0567 20.7651C28.065 20.5501 29.0483 20.3618 29.055 20.1318C29.0883 19.1585 29.0616 18.2468 28.5683 17.3801C28.0683 16.5018 26.83 15.6752 26.8467 14.5752C26.8433 14.7852 25.8517 14.9852 25.8483 15.2085Z" fill="#1A116C"/>
<path d="M26.4683 15.5818C27.49 15.2018 28.2 16.0168 28.8917 16.6401C29.1983 16.9151 29.5333 17.1801 29.9383 17.2901C30.3933 17.4134 30.8666 17.3251 31.33 17.3767C32.2983 17.4834 32.5133 18.2234 32.9283 18.9667C33.3933 19.8034 34.1366 20.4134 35.1116 20.4934C35.0033 20.4834 34.9799 19.3517 34.8533 19.3401C33.9283 19.2651 33.1916 18.7067 32.7299 17.9134C32.2833 17.1501 32.085 16.3418 31.0733 16.2234C30.1266 16.1134 29.495 16.2368 28.7183 15.5634C27.9917 14.9334 27.2817 14.0301 26.21 14.4268C26.1533 14.4484 26.5117 15.5651 26.4683 15.5801V15.5818Z" fill="#1A116C"/>
<path d="M19.9434 14.2835H28.01C27.75 14.8451 27.5583 15.2185 27.5583 15.2185H20.4784C20.2834 14.8951 20.1068 14.5835 19.9434 14.2835Z" fill="#1A116C"/>
</svg>
