<svg width="32" height="32" viewBox="0 0 32 32" fill="none" xmlns="http://www.w3.org/2000/svg">
<g clip-path="url(#clip0_31_20843)">
<path d="M21.27 4H10.73C9.5 4 8.5 4.99 8.5 6.2V25.79C8.5 27.01 9.5 27.99 10.73 27.99H21.27C22.5 27.99 23.5 27 23.5 25.79V6.2C23.5 4.98 22.5 4 21.27 4Z" fill="#ACA2FF"/>
<path d="M13.22 9.1202V12.2302C13.22 12.6002 13.52 12.9002 13.89 12.9002C14.26 12.9002 14.56 12.6002 14.56 12.2302V9.1202C14.56 8.7502 14.26 8.4502 13.89 8.4502C13.52 8.4502 13.22 8.7502 13.22 9.1202Z" fill="#291482"/>
<path d="M15.3301 9.1202V12.2302C15.3301 12.6002 15.6301 12.9002 16.0001 12.9002C16.3701 12.9002 16.6701 12.6002 16.6701 12.2302V9.1202C16.6701 8.7502 16.3701 8.4502 16.0001 8.4502C15.6301 8.4502 15.3301 8.7502 15.3301 9.1202Z" fill="#291482"/>
<path d="M17.4299 9.1202V12.2302C17.4299 12.6002 17.7299 12.9002 18.0999 12.9002C18.4699 12.9002 18.7699 12.6002 18.7699 12.2302V9.1202C18.7699 8.7502 18.4699 8.4502 18.0999 8.4502C17.7299 8.4502 17.4299 8.7502 17.4299 9.1202Z" fill="#291482"/>
<path d="M19.55 21.8099H12.46C12.37 21.8099 12.28 21.6999 12.34 21.6199C12.53 21.2899 12.88 20.4599 12.96 18.9699C12.96 18.9699 12.88 15.6099 16.01 15.6099C19.14 15.6099 19.06 18.9699 19.06 18.9699C19.14 20.4599 19.49 21.2899 19.67 21.6199C19.72 21.6999 19.66 21.8099 19.56 21.8099H19.55Z" fill="#291482"/>
<path d="M17.3499 22.4697C17.3499 23.1997 16.7399 23.7997 15.9999 23.7997C15.2599 23.7997 14.6499 23.1997 14.6499 22.4697H17.3499Z" fill="#291482"/>
</g>
<defs>
<clipPath id="clip0_31_20843">
<rect width="15" height="24" fill="white" transform="translate(8.5 4)"/>
</clipPath>
</defs>
</svg>
