<svg width="32" height="32" viewBox="0 0 32 32" fill="none" xmlns="http://www.w3.org/2000/svg">
<path d="M10.1143 8.19805L10.8148 7.43019L13.6505 6.77683L16.328 6.34912L20.7601 7.43019L21.9422 8.39002L25.4886 9.27238L26.6371 15.358L27.0075 16.9409L26.6068 17.5808L27.0075 18.709L26.6068 20.3559L27.3814 21.9084L26.6068 22.848V23.791V25.4312L16.7557 25.613H5.27798V24.67L5.05907 23.2387L4.85363 22.4641V20.4771V19.7025L4.5 18.2712L5.36218 17.3248L5.28808 15.9036L5.27798 13.4485L6.54767 9.44078L8.49767 8.82447L10.1143 8.19805Z" fill="#ACA2FF"/>
<path d="M19.8488 12.3335C19.7882 12.3335 19.7276 12.32 19.6737 12.2897L15.9454 10.3936L12.2172 12.2897C12.0488 12.3772 11.84 12.3267 11.7288 12.1718L9.51952 9.14751C9.43869 9.03637 9.42185 8.88819 9.4791 8.76021C9.50941 8.69285 10.2167 7.13019 11.8804 6.64185C11.8804 6.64185 11.8838 6.64185 11.8871 6.64185C11.8972 6.63849 11.9073 6.63175 11.9174 6.62838C11.9612 6.61491 12.9716 6.26803 14.4737 6.09627C15.8612 5.93461 17.9426 5.89757 19.9869 6.63175C19.997 6.63175 20.0037 6.63849 20.0138 6.64185C20.0138 6.64185 20.0172 6.64185 20.0206 6.64185C21.6843 7.13019 22.3915 8.69622 22.4219 8.76021C22.4791 8.88819 22.4623 9.033 22.3814 9.14751L20.1721 12.1718C20.098 12.2762 19.9801 12.3301 19.8589 12.3301L19.8488 12.3335ZM10.284 8.88819L12.1532 11.4511L15.1068 9.94905L11.9579 7.43329C11.0351 7.75997 10.4928 8.5312 10.284 8.88819ZM16.7773 9.94568L19.7309 11.4477L21.6035 8.88482C21.3947 8.52446 20.8524 7.75323 19.9296 7.42992L16.7807 9.94568H16.7773ZM12.8706 7.16723L15.9421 9.619L19.0371 7.14703C16.5348 6.45999 14.0493 6.88097 12.8706 7.16723Z" fill="white"/>
<path d="M5.00205 15.6509C4.97174 15.6509 4.93806 15.6475 4.90438 15.6374C4.69558 15.5835 4.57096 15.3747 4.62485 15.1659L6.05957 9.53828C6.14713 9.19813 6.43677 8.9287 6.8106 8.83777L8.41371 8.437C8.62252 8.38648 8.83133 8.51109 8.88522 8.7199C8.93573 8.9287 8.81112 9.1375 8.60231 9.19139L6.9992 9.59216C6.90154 9.61574 6.83081 9.66962 6.81397 9.73361L5.37926 15.3579C5.33547 15.533 5.17718 15.6509 5.00205 15.6509Z" fill="white"/>
<path d="M15.941 17.173C15.7255 17.173 15.5537 17.0989 15.5537 17.008V10.5957C15.5537 10.5048 15.7288 10.4307 15.941 10.4307C16.1532 10.4307 16.3283 10.5048 16.3283 10.5957V17.008C16.3283 17.0989 16.1532 17.173 15.941 17.173Z" fill="white"/>
<path d="M5.83051 17.715C5.45331 17.715 5.09295 17.4961 4.84709 17.1122C4.63155 16.7788 4.51367 16.3477 4.51367 15.9032C4.51367 15.6337 4.55745 15.3744 4.64165 15.1353C4.71238 14.9332 4.93466 14.8288 5.13673 14.8995C5.3388 14.9703 5.44321 15.1925 5.37248 15.3946C5.31859 15.5495 5.28828 15.7247 5.28828 15.9065C5.28828 16.4791 5.58466 16.9438 5.83051 16.9438C6.04606 16.9438 6.21782 17.1189 6.21782 17.3311C6.21782 17.5433 6.04269 17.7184 5.83051 17.7184V17.715Z" fill="white"/>
<path d="M27.0137 15.6508C26.8419 15.6508 26.6837 15.5329 26.6365 15.3578L25.2018 9.73018C25.185 9.66956 25.1142 9.61567 25.0199 9.5921L23.2619 9.15428C23.0531 9.10376 22.9285 8.89159 22.979 8.68279C23.0295 8.47398 23.2417 8.34937 23.4505 8.39989L25.2085 8.83771C25.5824 8.92864 25.8686 9.19469 25.9596 9.53484L27.3943 15.1625C27.4482 15.3713 27.3236 15.5801 27.1147 15.634C27.0811 15.6407 27.0508 15.6474 27.0171 15.6474L27.0137 15.6508Z" fill="white"/>
<path d="M26.0943 17.7155C25.8788 17.7155 25.707 17.5404 25.707 17.3282C25.707 17.116 25.8822 16.9409 26.0943 16.9409C26.3436 16.9409 26.7309 16.4963 26.7309 15.9036C26.7309 15.7251 26.7006 15.5466 26.6467 15.3917C26.5759 15.1896 26.6803 14.9673 26.8824 14.8966C27.0845 14.8259 27.3068 14.9303 27.3775 15.1324C27.4617 15.3715 27.5055 15.6308 27.5055 15.9036C27.5055 16.8702 26.8454 17.7155 26.0943 17.7155Z" fill="white"/>
<path d="M26.0511 20.4771H5.83031C5.09611 20.4771 4.5 19.881 4.5 19.1468V18.2678C4.5 17.5336 5.09611 16.9375 5.83031 16.9375H26.0511C26.7852 16.9375 27.3814 17.5336 27.3814 18.2678V19.1468C27.3814 19.881 26.7852 20.4771 26.0511 20.4771ZM5.83031 17.7155C5.52384 17.7155 5.27798 17.9647 5.27798 18.2678V19.1468C5.27798 19.4533 5.5272 19.6991 5.83031 19.6991H26.0511C26.3575 19.6991 26.6034 19.4499 26.6034 19.1468V18.2678C26.6034 17.9613 26.3542 17.7155 26.0511 17.7155H5.83031Z" fill="white"/>
<path d="M26.0511 23.2388H5.83031C5.09611 23.2388 4.5 22.6427 4.5 21.9085V21.0295C4.5 20.2953 5.09611 19.6992 5.83031 19.6992H26.0511C26.7852 19.6992 27.3814 20.2953 27.3814 21.0295V21.9085C27.3814 22.6427 26.7852 23.2388 26.0511 23.2388ZM5.83031 20.4772C5.52384 20.4772 5.27798 20.7264 5.27798 21.0295V21.9085C5.27798 22.215 5.5272 22.4608 5.83031 22.4608H26.0511C26.3575 22.4608 26.6034 22.2116 26.6034 21.9085V21.0295C26.6034 20.723 26.3542 20.4772 26.0511 20.4772H5.83031Z" fill="white"/>
<path d="M26.0511 26H5.83031C5.09611 26 4.5 25.4039 4.5 24.6697V23.7907C4.5 23.0566 5.09611 22.4604 5.83031 22.4604H26.0511C26.7852 22.4604 27.3814 23.0566 27.3814 23.7907V24.6697C27.3814 25.4039 26.7852 26 26.0511 26ZM5.83031 23.2384C5.52384 23.2384 5.27798 23.4876 5.27798 23.7907V24.6697C5.27798 24.9762 5.5272 25.2221 5.83031 25.2221H26.0511C26.3575 25.2221 26.6034 24.9728 26.6034 24.6697V23.7907C26.6034 23.4843 26.3542 23.2384 26.0511 23.2384H5.83031Z" fill="white"/>
</svg>
