<svg width="32" height="32" viewBox="0 0 32 32" fill="none" xmlns="http://www.w3.org/2000/svg">
<path d="M16 28C22.6274 28 28 22.6274 28 16C28 9.37258 22.6274 4 16 4C9.37258 4 4 9.37258 4 16C4 22.6274 9.37258 28 16 28Z" fill="#ACA2FF"/>
<path d="M14.179 20.5C13.8535 20.5 13.5443 20.3717 13.3164 20.1359L10.3174 17.0862C9.8942 16.6559 9.8942 15.9566 10.3174 15.5262C10.5209 15.3193 10.7935 15.2034 11.0824 15.2034C11.3713 15.2034 11.6439 15.3193 11.8474 15.5262L14.179 17.8972L20.1526 11.8228C20.3561 11.6159 20.6287 11.5 20.9176 11.5C21.2065 11.5 21.4791 11.6159 21.6826 11.8228C22.1058 12.2531 22.1058 12.9524 21.6826 13.3828L15.0417 20.1359C14.8098 20.3717 14.5046 20.5 14.179 20.5Z" fill="#291482"/>
</svg>
