<svg width="24" height="24" viewBox="0 0 24 24" fill="none" xmlns="http://www.w3.org/2000/svg">
<path d="M8.50799 1C8.33554 1 8.1958 1.15386 8.1958 1.34364V4.54138C8.1958 4.73116 8.33554 4.88502 8.50799 4.88502C8.68044 4.88502 8.82018 4.73116 8.82018 4.54138V1.34364C8.82018 1.15386 8.68044 1 8.50799 1Z" fill="#291482"/>
<path d="M18.9726 21.4395C14.4104 23.3381 9.09958 23.3515 4.53857 21.4412C4.05397 21.2382 3.85217 20.6039 4.11795 20.1139L9.03956 11.0397H14.4744L19.3947 20.1115C19.6608 20.6022 19.4582 21.2374 18.9726 21.4395Z" fill="#9176FF"/>
<path d="M11.7569 4.57446C11.3615 3.94597 10.7005 3.53383 9.95138 3.53383C8.74051 3.53383 7.75891 4.61011 7.75891 5.93776C7.75891 7.64455 9.03955 9.23396 9.03955 9.23396H14.4744C14.4744 9.23396 15.755 7.59892 15.755 5.93776C15.755 4.61011 14.7734 3.53383 13.5625 3.53383C12.8134 3.53383 12.1524 3.94601 11.7569 4.57446Z" fill="#9176FF"/>
<path d="M9.03931 9.23396H14.4741V11.0398H9.03931V9.23396Z" fill="#291482"/>
<path d="M13.4056 11.0397L16.4705 21.1707C16.5991 21.6291 16.3682 22.1148 15.9471 22.2726C13.2785 23.2726 10.2627 23.2158 7.58215 22.2606C7.15449 22.1082 6.91761 21.6179 7.04752 21.1547L10.108 11.0398H13.4056V11.0397Z" fill="#ACA2FF"/>
<path d="M15.006 1C14.8336 1 14.6938 1.15386 14.6938 1.34364V4.54138C14.6938 4.73116 14.8336 4.88502 15.006 4.88502C15.1785 4.88502 15.3182 4.73116 15.3182 4.54138V1.34364C15.3182 1.15386 15.1784 1 15.006 1Z" fill="#291482"/>
<path d="M13.5626 3.53383C13.268 3.53383 12.9874 3.59839 12.7308 3.71399C13.5284 4.07362 14.0901 4.93359 14.0901 5.93776C14.0901 7.59887 12.8095 9.23396 12.8095 9.23396H14.4745C14.4745 9.23396 15.7551 7.59892 15.7551 5.93776C15.7551 4.61011 14.7735 3.53383 13.5626 3.53383Z" fill="#ACA2FF"/>
<path d="M17.1353 20.4805C17.1353 20.3623 17.175 17.7152 19.7812 17.7152C20.0193 17.7152 20.2177 17.538 20.2177 17.3253C20.2177 17.1126 20.0193 16.9353 19.7812 16.9353C17.175 16.9353 17.1353 14.2883 17.1353 14.1701V14.1701C17.1353 14.0283 17.0559 13.8983 16.9104 13.8274C16.7649 13.7565 16.6061 13.7565 16.4738 13.8274C16.3415 13.8983 16.2489 14.0283 16.2489 14.1701C16.2489 14.2883 16.2092 16.9353 13.6031 16.9353C13.3649 16.9353 13.1665 17.1126 13.1665 17.3253C13.1665 17.538 13.3649 17.7152 13.6031 17.7152C16.2092 17.7152 16.2489 20.3623 16.2489 20.4805V20.4805C16.2489 20.6932 16.4474 20.8704 16.6855 20.8704C16.9369 20.8822 17.1353 20.705 17.1353 20.4805V20.4805Z" fill="#291482"/>
<path d="M19.8674 14.1324C19.8674 14.026 19.8992 11.6437 21.9841 11.6437C22.1746 11.6437 22.3334 11.4841 22.3334 11.2927C22.3334 11.1013 22.1746 10.9417 21.9841 10.9417C19.8992 10.9417 19.8674 8.5594 19.8674 8.45304V8.45304C19.8674 8.32542 19.8039 8.20843 19.6875 8.14462C19.5711 8.0808 19.4441 8.0808 19.3382 8.14462C19.2324 8.20843 19.1583 8.32542 19.1583 8.45304C19.1583 8.5594 19.1266 10.9417 17.0416 10.9417C16.8511 10.9417 16.6924 11.1013 16.6924 11.2927C16.6924 11.4841 16.8511 11.6437 17.0416 11.6437C19.1266 11.6437 19.1583 14.026 19.1583 14.1324V14.1324C19.1583 14.3238 19.3171 14.4833 19.5076 14.4833C19.7087 14.494 19.8674 14.3345 19.8674 14.1324V14.1324Z" fill="#291482"/>
</svg>
