<svg width="32" height="32" viewBox="0 0 32 32" fill="none" xmlns="http://www.w3.org/2000/svg">
<path d="M18.7285 6.63086C19.4427 6.63101 20.1017 7.04617 20.4082 7.68945L21.2461 9.4502H21.5811V9.01953C21.5813 8.63464 21.8953 8.32031 22.2803 8.32031H23.6836C24.0685 8.32031 24.3826 8.63464 24.3828 9.01953V9.49121H24.3809C25.3839 9.68139 26.1436 10.5609 26.1436 11.6172V20.1094C26.1435 21.3025 25.1735 22.2723 23.9805 22.2725H8.02441C6.83118 22.2725 5.86044 21.3026 5.86035 20.1094V11.6172C5.86035 10.4215 6.83051 9.45037 8.03125 9.4502H10.7676L11.6064 7.68945C11.9131 7.04615 12.5718 6.63086 13.2861 6.63086H18.7285ZM16.002 11.7998C13.76 11.8 11.9385 13.6213 11.9385 15.8633C11.9385 18.1053 13.7625 19.9265 16.002 19.9268C18.2416 19.9268 20.0664 18.1055 20.0664 15.8633C20.0664 13.6211 18.2441 11.7998 16.002 11.7998ZM22.3389 9.08105V9.4502H23.623V9.08105H22.3389Z" fill="#ACA2FF"/>
<path d="M16.0019 13.0688C14.4615 13.0688 13.21 14.3229 13.21 15.8608C13.21 17.3986 14.4641 18.6527 16.0019 18.6527C17.5398 18.6527 18.7939 17.3986 18.7939 15.8608C18.7939 14.3229 17.5398 13.0688 16.0019 13.0688ZM16.0019 17.9586C14.8466 17.9586 13.9067 17.0186 13.9067 15.8633C13.9067 14.708 14.8466 13.7681 16.0019 13.7681C17.1572 13.7681 18.0971 14.708 18.0971 15.8633C18.0971 17.0186 17.1572 17.9586 16.0019 17.9586Z" fill="#291482"/>
<path d="M9.7007 11.2725H8.25405C8.04377 11.2725 7.87402 11.4422 7.87402 11.6525C7.87402 11.8628 8.04377 12.0325 8.25405 12.0325H9.7007C9.91098 12.0325 10.0807 11.8628 10.0807 11.6525C10.0807 11.4422 9.91098 11.2725 9.7007 11.2725Z" fill="#291482"/>
<path d="M24.441 24.631C26.809 24.631 28.7287 22.7114 28.7287 20.3433C28.7287 17.9753 26.809 16.0557 24.441 16.0557C22.073 16.0557 20.1533 17.9753 20.1533 20.3433C20.1533 22.7114 22.073 24.631 24.441 24.631Z" fill="#291482"/>
<path d="M24.4414 18.9141V21.7725" stroke="white" stroke-width="0.75" stroke-miterlimit="10" stroke-linecap="round"/>
<path d="M25.8702 20.3433H23.0117" stroke="white" stroke-width="0.75" stroke-miterlimit="10" stroke-linecap="round"/>
</svg>
