<svg width="32" height="32" viewBox="0 0 32 32" fill="none" xmlns="http://www.w3.org/2000/svg">
<path d="M23.4638 13.0212C23.2369 9.24885 22.4378 5.94408 22.1726 4.92857C22.1237 4.74012 21.9492 4.61798 21.7573 4.63194C20.7243 4.71221 17.5208 4.94951 15.9923 4.94951C14.4638 4.94951 11.3021 4.7157 10.2482 4.63543C10.0458 4.62147 9.86086 4.75059 9.80851 4.94951C9.53631 5.98945 8.74415 9.27677 8.52081 13.0247C8.29398 16.846 8.45101 23.7068 8.49987 25.5354C8.50685 25.7902 8.71623 25.9926 8.97447 25.9926H14.1218C14.4394 25.9926 14.7011 25.7483 14.7185 25.4307C14.8372 23.2985 15.3048 15.7711 15.9958 14.3892C16.6902 15.7781 17.1544 23.4067 17.2695 25.4761C17.287 25.7692 17.5278 25.9926 17.8209 25.9926H22.9473C23.2404 25.9926 23.4847 25.7622 23.4917 25.4656C23.544 23.5707 23.7046 16.9926 23.4673 13.0247L23.4638 13.0212Z" fill="#ACA2FF"/>
<path d="M28.3602 15.8828L23.4746 25.6296L24.1565 16.0486L25.7199 14.1013C25.8525 13.9373 26.0829 13.8954 26.2678 14.0001L28.2171 15.3942C28.3881 15.4954 28.4509 15.7083 28.3602 15.8828Z" fill="#ACA2FF"/>
<path d="M9.42773 6.07666C9.42773 6.07666 13.5386 6.54079 15.9989 6.54079C18.4591 6.54079 22.563 6.07666 22.563 6.07666" stroke="#291482" stroke-linejoin="round"/>
</svg>
