<svg width="24" height="24" viewBox="0 0 24 24" fill="none" xmlns="http://www.w3.org/2000/svg">
<path d="M15.818 1.02996C15.818 1.02996 13.8398 2.14809 11.7453 2.14809C9.50533 2.14809 7.78899 1.01544 7.78899 1.01544C7.78899 1.01544 4.54539 5.0378 5.4472 8.9585C6.02901 11.4852 11.8471 18.7167 11.8471 18.7167C11.8471 18.7167 17.6361 11.7611 17.5052 8.90042C17.3016 4.34078 15.818 1.02996 15.818 1.02996Z" fill="#ACA2FF"/>
<path d="M2.66908 4.77642L5.25814 3.54212L11.8617 5.48796L18.4071 3.48404L21.1561 4.32627C21.607 4.47148 21.8834 4.71834 21.8834 4.97972L21.8543 11.9644C21.8688 13.4455 21.9561 18.5027 21.9998 20.8806C22.0143 21.8627 21.3743 22.6726 20.5452 22.7071C18.2762 22.8105 14.0144 22.9828 12.1235 23C12.109 23 12.0799 23 12.0508 23C12.0217 23 12.0072 23 11.9781 23C10.0872 23 5.78177 22.8794 3.52725 22.8105C2.71272 22.776 2.07273 22.0006 2.05818 21.0356C2.04364 18.6405 2.02909 13.5472 2 12.066L2.14545 5.37179C2.17454 5.13945 2.36363 4.93615 2.66908 4.77642Z" fill="#ACA2FF"/>
<path d="M16.1671 1.14615L18.1889 3.19363C18.3198 3.33884 18.378 3.52762 18.3344 3.71639C18.3344 3.71639 17.6071 8.23247 17.0253 8.59549C16.6035 8.8714 14.989 8.92948 13.5635 8.21794C12.9817 7.92752 11.7017 6.80939 11.8181 6.76583C12.749 6.38828 14.9308 5.61866 15.6726 3.789C16.109 2.72895 16.1962 1.5237 15.8035 1.10259C15.6144 0.957374 16.0653 1.0445 16.1671 1.14615Z" fill="#9176FF"/>
<path d="M7.42543 1.1171L5.46182 3.15006C5.34546 3.28075 5.28728 3.48405 5.34546 3.67282C5.34546 3.67282 6.18908 8.18889 6.78544 8.56644C7.20725 8.84235 8.83632 8.92947 10.2472 8.21794C10.8145 7.94204 12.0654 6.82391 11.9636 6.78034C11.0181 6.38827 8.80723 5.60413 8.02179 3.77447C7.55634 2.71443 7.42543 1.50917 7.81815 1.08806C7.97815 0.928325 7.52725 1.01545 7.42543 1.1171Z" fill="#9176FF"/>
<path d="M13.7764 8.79405C14.0744 8.76796 14.1558 9.13437 14.21 9.34385C14.2642 9.63188 14.2909 10.0506 14.0742 10.2862C13.8032 10.5743 14.1016 10.6534 14.1016 10.9415C14.1013 11.2297 13.7494 11.8053 14.1016 12.0147C14.237 11.8839 14.3994 11.7012 14.5889 11.7794C14.7244 11.8318 14.8064 12.0146 14.8877 11.7003C14.915 11.5698 15.0502 11.5694 15.1856 11.5694C15.2127 11.5695 15.2666 11.5962 15.2666 11.6485C15.2666 11.7531 15.2397 11.8054 15.1856 11.8839C15.0772 12.0932 15.077 12.1981 15.2393 12.4073C15.5374 12.774 15.7817 12.2505 16.0528 12.172C16.1883 12.1458 16.2971 12.1192 16.4326 12.1192C16.7034 12.0928 16.8932 11.8054 17.0557 11.6222C17.2183 11.3865 17.4353 11.2028 17.625 10.9933C17.6521 11.0718 17.6516 11.151 17.6787 11.2296C17.4621 11.439 17.2726 11.6484 17.083 11.8839C16.8933 12.1195 16.7302 12.3551 16.4863 12.5646C16.405 12.6431 16.3238 12.7223 16.2695 12.8009C16.1882 12.9323 15.9993 13.5077 16.4326 13.4815C16.5408 13.4815 16.649 13.4549 16.7842 13.4288C16.8113 13.4288 16.8662 13.4554 16.8662 13.4815C16.8662 13.6386 16.8113 13.6909 16.6758 13.7433C16.7029 13.7695 16.73 13.7698 16.6758 13.796C16.6217 13.8745 16.5678 13.9793 16.5137 14.0577C16.527 14.0577 16.5404 14.0515 16.5537 14.045L16.6621 14.0089C16.6826 14.0055 16.7032 14.005 16.7305 14.005C16.9199 14.0312 16.9742 14.162 17.1094 14.2667C17.1636 14.2929 17.7061 14.4768 17.5977 14.6339C17.408 14.8696 17.1368 14.6857 16.9199 14.5548C16.8979 14.5407 16.8963 14.5581 16.9053 14.5899C16.9181 14.5893 16.9313 14.589 16.9444 14.589C17.0479 14.623 17.1517 14.6912 17.2207 14.7931C17.3931 14.8949 17.4966 15.0306 17.4278 15.2003C17.3832 15.3098 17.3236 15.4037 17.2412 15.4396C17.2426 15.4414 17.2437 15.4436 17.2451 15.4454C17.2716 15.4454 17.2725 15.4706 17.2725 15.4718C17.2454 15.5765 17.137 15.6028 17.0557 15.629C16.9473 15.6552 16.8386 15.6815 16.8115 15.7862C16.7859 15.9177 18.6373 16.9322 18.749 16.9864C18.6963 16.96 17.8048 16.5258 17.625 16.6241C17.5168 16.6764 17.3812 16.6503 17.2998 16.6241C17.1643 16.5979 18.8304 17.3536 18.6406 17.3536C18.5324 17.3536 18.4777 17.3534 18.3965 17.3272C18.2882 17.3011 18.1796 17.2743 18.0713 17.2481C17.9831 17.2195 16.2695 16.6246 16.2695 16.6769C16.2428 16.8075 16.4054 16.8335 16.5137 16.8858C16.6762 16.9644 16.73 17.0959 16.7842 17.253C16.7842 17.2787 16.7844 17.2784 16.7578 17.2784C16.514 17.3046 16.3508 17.2791 16.1611 17.1222C15.8901 16.9389 15.6734 17.0165 15.4024 16.9903C15.3211 16.9903 14.9685 16.8864 14.9414 16.9649C14.6981 17.7503 15.9712 18.1698 15.7002 18.9815C15.6459 19.1647 15.5105 19.322 15.4834 19.5313C15.4565 19.7407 15.5916 19.9243 15.6729 20.1075C15.6781 20.1171 15.6824 20.1272 15.6875 20.1368C15.783 20.0914 15.9148 20.0988 16.0557 20.1681C16.1246 20.202 16.0902 20.2357 16.0557 20.2696C16.2629 20.4735 16.3662 20.7798 16.3662 21.0177C16.3662 21.1777 16.2818 21.2443 16.1709 21.2589C16.2276 21.3996 16.2861 21.5403 16.3506 21.6788C16.4048 21.7836 16.5132 22.0451 16.5674 22.3067C16.2423 22.3329 15.9443 22.3597 15.6192 22.3858C15.565 22.1763 15.5105 21.9664 15.4834 21.7569C15.4563 21.4167 15.4838 21.181 15.4297 20.9454C15.3755 20.7359 15.2664 20.5787 15.2393 20.3692C15.2122 20.186 15.2126 19.9764 15.1856 19.7931C15.1585 19.5837 15.0231 19.5312 14.8877 19.4005C14.6439 19.1125 14.5354 18.5622 14.4541 18.2218C14.427 18.0908 14.3453 17.0434 14.0742 17.0958C14.0471 17.1219 13.9926 17.1481 13.9385 17.2003C13.9115 17.2264 13.8844 17.2523 13.8574 17.2784C13.6407 17.5926 13.5594 18.0644 13.126 18.0646C13.0718 18.0646 13.0171 18.0382 12.9629 18.0382C12.909 18.0381 12.8819 18.012 12.8281 18.0118C12.53 17.9071 12.5022 17.5932 12.4209 17.3575C12.2854 16.8861 11.5806 17.1745 11.3096 17.253C11.0658 17.3314 10.8219 17.3315 10.5781 17.3839C10.2802 17.4363 10.0634 17.6979 9.8467 17.9073C9.71119 18.0645 9.54813 18.1688 9.35842 18.2735C8.89769 18.5616 8.5994 18.85 8.35549 19.3214C8.11162 19.8188 7.48892 20.2119 6.91994 19.9767C6.70313 19.8981 6.6487 19.6619 6.6758 19.4786C6.73003 19.1645 7.00056 18.9545 7.2715 18.8497C7.67802 18.6926 8.13867 18.7974 8.46388 18.4308C8.54517 18.326 8.49147 18.0378 8.62697 17.9855C8.76233 17.9332 8.89786 17.9859 9.03322 17.9337C9.46683 17.698 9.81934 17.3574 10.0361 16.9122C10.1445 16.6765 10.0633 16.467 10.0361 16.2052C10.0091 15.9172 10.1175 15.7601 10.2529 15.5245C10.307 15.4461 10.3076 15.3413 10.3076 15.2628H10.2256C10.0092 15.2886 9.901 15.0009 10.1172 14.9483C10.1713 14.9222 10.2797 14.896 10.334 14.922C10.3611 14.922 10.3889 14.9222 10.416 14.9483C10.551 15.0004 10.5239 14.9477 10.2803 14.7384C10.0365 14.6075 9.71137 14.7648 9.44045 14.7911C9.22363 14.8173 9.00613 14.7126 8.81642 14.6603C8.57257 14.5817 8.38256 14.6341 8.13869 14.6603C7.84079 14.7124 7.5968 14.5812 7.29884 14.712C6.91942 14.8691 6.67534 14.9739 6.29592 14.712C6.02541 14.5024 6.21499 14.0843 6.54006 14.1105C6.81107 14.1366 7.05517 14.2669 7.32619 14.2931C7.73261 14.3192 8.0035 14.2931 8.38283 14.1622C8.5995 14.0837 8.78924 14.1101 9.00588 14.1886C9.24968 14.2671 9.46689 14.293 9.68361 14.2931C9.6568 14.2672 9.65699 14.2667 9.71095 14.2667H9.90041C10.0088 14.2667 10.4156 14.162 10.2529 14.1358C10.1717 14.1358 10.0903 14.1366 10.0361 14.1105C9.98206 14.0843 9.92798 14.0056 9.92775 13.9532C9.95484 13.77 10.1177 13.6909 9.98244 13.4815C9.92824 13.3768 9.73853 13.2199 9.87404 13.089C9.9553 13.0105 10.0362 12.9835 10.1445 12.9835C10.6593 12.9573 10.4428 12.5653 10.1719 12.3819C10.0364 12.3034 9.95535 12.2502 9.87404 12.1192C9.71145 11.8836 9.5481 11.6481 9.35842 11.4386C9.25006 11.3338 9.1143 11.1768 9.11427 11.046C9.0872 10.8365 9.2774 10.6529 9.49416 10.7052C9.76517 10.7576 9.98242 10.9408 10.1992 11.1241C10.5244 11.4122 10.8494 11.6744 11.2559 11.8839C11.2829 11.8838 11.3099 11.858 11.3369 11.8839C11.7975 12.0671 11.4185 11.439 11.6348 11.3077C11.716 11.2554 11.7977 11.3079 11.8789 11.3341C11.9331 11.3603 11.96 11.4389 11.96 11.4913C11.96 11.5436 11.9873 11.5962 11.9873 11.6485C12.0145 11.8841 12.2586 11.9624 12.4483 12.0147C13.1797 12.1718 13.1804 11.4393 13.1533 10.9679C13.1262 10.7846 13.126 10.6268 13.126 10.4435C13.1261 10.1817 13.3431 9.99863 13.4785 9.78916C13.6953 9.47489 13.2073 8.84642 13.7764 8.79405ZM14.627 21.378C14.9378 21.1742 15.2141 21.5476 15.2832 21.8194C15.3523 22.1593 15.0065 22.397 14.6611 22.295C14.3851 22.2269 14.2819 21.9213 14.3164 21.6495C14.3165 21.4457 14.4543 21.378 14.627 21.378Z" fill="#291482"/>
</svg>
