<svg width="32" height="32" viewBox="0 0 32 32" fill="none" xmlns="http://www.w3.org/2000/svg">
<path d="M19.2256 6.60889C19.4216 6.6089 19.5801 6.76736 19.5801 6.96338C19.5801 7.15939 19.4216 7.31786 19.2256 7.31787C19.0296 7.31787 18.8711 7.1594 18.8711 6.96338C18.8711 6.76735 19.0296 6.60889 19.2256 6.60889Z" fill="#291482" stroke="#291482" stroke-width="0.241218"/>
<path d="M22.082 6.60889C22.2781 6.6089 22.4365 6.76735 22.4365 6.96338C22.4365 7.15939 22.278 7.31786 22.082 7.31787C21.886 7.31787 21.7276 7.1594 21.7275 6.96338C21.7275 6.76735 21.886 6.60889 22.082 6.60889Z" fill="#291482" stroke="#291482" stroke-width="0.241218"/>
<path d="M20.6514 5.65771C20.8474 5.65773 21.0059 5.81618 21.0059 6.01221C21.0058 6.20822 20.8474 6.36669 20.6514 6.3667C20.4553 6.3667 20.2969 6.20823 20.2969 6.01221C20.2969 5.81618 20.4553 5.65771 20.6514 5.65771Z" fill="#291482" stroke="#291482" stroke-width="0.241218"/>
<path d="M22.082 4.70654C22.2781 4.70656 22.4365 4.86501 22.4365 5.06104C22.4365 5.25705 22.278 5.41551 22.082 5.41553C21.886 5.41553 21.7276 5.25705 21.7275 5.06104C21.7275 4.865 21.886 4.70654 22.082 4.70654Z" fill="#291482" stroke="#291482" stroke-width="0.241218"/>
<path d="M22.082 8.51465C22.2781 8.51466 22.4365 8.67312 22.4365 8.86914C22.4365 9.06515 22.278 9.22362 22.082 9.22363C21.886 9.22363 21.7276 9.06516 21.7275 8.86914C21.7275 8.67311 21.886 8.51465 22.082 8.51465Z" fill="#291482" stroke="#291482" stroke-width="0.241218"/>
<path d="M20.6514 7.56348C20.8474 7.56349 21.0059 7.72195 21.0059 7.91797C21.0058 8.11398 20.8474 8.27245 20.6514 8.27246C20.4553 8.27246 20.2969 8.11399 20.2969 7.91797C20.2969 7.72194 20.4553 7.56348 20.6514 7.56348Z" fill="#291482" stroke="#291482" stroke-width="0.241218"/>
<path d="M23.5117 5.65771C23.7077 5.65773 23.8662 5.81618 23.8662 6.01221C23.8662 6.20822 23.7077 6.36669 23.5117 6.3667C23.3157 6.3667 23.1572 6.20822 23.1572 6.01221C23.1572 5.81618 23.3157 5.65771 23.5117 5.65771Z" fill="#291482" stroke="#291482" stroke-width="0.241218"/>
<path d="M23.5117 3.75195C23.7077 3.75197 23.8662 3.91042 23.8662 4.10645C23.8662 4.30246 23.7077 4.46092 23.5117 4.46094C23.3157 4.46094 23.1572 4.30246 23.1572 4.10645C23.1572 3.91041 23.3157 3.75195 23.5117 3.75195Z" fill="#291482" stroke="#291482" stroke-width="0.241218"/>
<path d="M23.5117 7.56348C23.7077 7.56349 23.8662 7.72194 23.8662 7.91797C23.8662 8.11398 23.7077 8.27245 23.5117 8.27246C23.3157 8.27246 23.1572 8.11399 23.1572 7.91797C23.1572 7.72194 23.3157 7.56348 23.5117 7.56348Z" fill="#291482" stroke="#291482" stroke-width="0.241218"/>
<path d="M23.5117 9.46924C23.7077 9.46925 23.8662 9.62771 23.8662 9.82373C23.8662 10.0197 23.7077 10.1782 23.5117 10.1782C23.3157 10.1782 23.1572 10.0197 23.1572 9.82373C23.1572 9.6277 23.3157 9.46924 23.5117 9.46924Z" fill="#291482" stroke="#291482" stroke-width="0.241218"/>
<path d="M13.9873 8.39344V6.06734C13.9873 5.77443 14.2251 5.5332 14.5214 5.5332H16.3134C16.6063 5.5332 16.8476 5.77098 16.8476 6.06734V8.39344" fill="#ACA2FF"/>
<path d="M11.6064 11.3495L11.7029 10.8636C11.9235 9.76086 12.8918 8.96826 14.0153 8.96826H16.8169C17.9404 8.96826 18.9087 9.76086 19.1293 10.8636L19.2258 11.3495" fill="#291482"/>
<path d="M19.2252 11.917C19.4871 11.917 19.7008 12.1306 19.7008 12.3925V26.2871C19.7008 26.5387 19.6008 26.7833 19.4216 26.9591L19.0288 27.3519C18.8496 27.5311 18.6084 27.6311 18.3568 27.6311H12.4778C12.2262 27.6311 11.9815 27.5311 11.8058 27.3519L11.4129 26.9591C11.2337 26.7799 11.1338 26.5387 11.1338 26.2871V12.3925C11.1338 12.1306 11.3474 11.917 11.6094 11.917H19.2287H19.2252Z" fill="#ACA2FF"/>
</svg>
