<svg width="32" height="32" viewBox="0 0 32 32" fill="none" xmlns="http://www.w3.org/2000/svg">
<g clip-path="url(#clip0_31_20842)">
<path d="M16.1396 8.31186C16.1396 6.63457 16.0446 6.35341 15.5701 5.90743C15.2189 5.57779 14.7823 5.3451 14.4785 4.96698C14.2128 4.63734 14.0609 4.21075 14.1179 3.78416C14.1558 3.42543 14.2982 2.97945 14.7063 2.68859C15.0101 2.47529 15.4087 2.41712 15.7599 2.52377C16.1111 2.63042 16.4053 2.91158 16.5382 3.25092" stroke="#291482" stroke-linecap="round" stroke-linejoin="round"/>
<path d="M21.9862 29.6315H10.2831C9.84652 29.6315 9.48584 29.2534 9.48584 28.788V11.9279C9.48584 11.5983 9.66618 11.2977 9.96042 11.162L15.8072 8.38912C16.016 8.29217 16.2533 8.29217 16.4526 8.38912L22.2994 11.162C22.5841 11.2977 22.774 11.5983 22.774 11.9279V28.788C22.774 29.2534 22.4133 29.6315 21.9767 29.6315H21.9862Z" fill="#ACA2FF" stroke="#ACA2FF" stroke-width="0.75" stroke-linecap="round" stroke-linejoin="round"/>
</g>
<defs>
<clipPath id="clip0_31_20842">
<rect width="15" height="30" fill="white" transform="translate(8.63477 1)"/>
</clipPath>
</defs>
</svg>
