<svg width="32" height="32" viewBox="0 0 32 32" fill="none" xmlns="http://www.w3.org/2000/svg">
<path d="M17.3298 17.8097H14.6631C13.9267 17.8097 13.3298 18.4066 13.3298 19.143V24.4764C13.3298 25.2127 12.7328 25.8097 11.9964 25.8097H7.99642C7.26004 25.8097 6.66309 25.2127 6.66309 24.4764V17.0286C6.66309 16.675 6.80356 16.3359 7.05361 16.0858L15.0536 8.08584C15.5743 7.56514 16.4185 7.56514 16.9392 8.08584L24.9392 16.0858C25.1893 16.3359 25.3298 16.675 25.3298 17.0286V24.4764C25.3298 25.2127 24.7328 25.8097 23.9964 25.8097H19.9964C19.26 25.8097 18.6631 25.2127 18.6631 24.4764V19.143C18.6631 18.4066 18.0661 17.8097 17.3298 17.8097Z" fill="#ACA2FF"/>
<path d="M28.468 18.6715C28.7284 18.9319 28.7284 19.3539 28.468 19.6143C28.2077 19.8746 27.7857 19.8746 27.5253 19.6143L15.9967 8.08561L4.46805 19.6143C4.2077 19.8746 3.78569 19.8746 3.52534 19.6143C3.26499 19.3539 3.26499 18.9319 3.52534 18.6715L15.9967 6.2002L28.468 18.6715Z" fill="#291482"/>
</svg>
