<svg width="32" height="32" viewBox="0 0 32 32" fill="none" xmlns="http://www.w3.org/2000/svg">
<path d="M12.4618 9.83008L7.57285 12.1505C7.25555 12.3012 7.01801 12.5812 6.92229 12.918L4.0896 22.8608C3.90524 23.5096 4.28104 24.185 4.92983 24.3693L12.7472 26.5993C13.396 26.7837 14.0714 26.4079 14.2557 25.7591L17.0902 15.8181C17.1859 15.4813 17.1327 15.1179 16.9431 14.8219L14.0147 10.2715C13.6832 9.75563 13.0184 9.56595 12.4636 9.83008H12.4618Z" fill="#291482"/>
<path d="M13.6867 4.11328C10.7973 5.18396 14.5872 9.05543 14.5872 9.05543" stroke="#291482" stroke-miterlimit="10" stroke-linecap="round"/>
<path d="M23.4149 11.6895L18.1005 7.01861C17.4978 6.48859 16.5955 6.48859 15.9928 7.01861L10.6784 11.6895C10.3327 11.9927 10.136 12.4287 10.136 12.8878V26.4025C10.136 27.2835 10.8504 27.9997 11.7331 27.9997H22.3602C23.2412 27.9997 23.9573 27.2853 23.9573 26.4025V12.8896C23.9573 12.4305 23.7606 11.9944 23.4149 11.6913V11.6895ZM17.2496 11.92C16.3846 12.0529 15.6507 11.3173 15.7819 10.4522C15.8652 9.91335 16.3048 9.47196 16.8437 9.39041C17.7087 9.25747 18.4426 9.99311 18.3114 10.8582C18.2281 11.3971 17.7885 11.8384 17.2496 11.92Z" fill="#ACA2FF"/>
<path d="M17.1363 10.5306C17.1363 10.5306 16.4202 2.99326 13.6868 4.11357" stroke="#291482" stroke-miterlimit="10" stroke-linecap="round"/>
<path d="M18.223 17.8355C18.1893 17.5413 18.0528 17.3126 17.8117 17.1495C17.5707 16.9864 17.2693 16.9049 16.9041 16.9049C16.6436 16.9049 16.4167 16.9456 16.227 17.0272C16.0373 17.1087 15.8884 17.2204 15.7838 17.3622C15.6792 17.504 15.6261 17.6653 15.6261 17.8461C15.6261 17.9968 15.6615 18.128 15.7342 18.2379C15.8051 18.3478 15.9008 18.44 16.0178 18.5127C16.1348 18.5871 16.2607 18.6474 16.3954 18.697C16.5301 18.7467 16.6595 18.7856 16.7836 18.8176L17.4058 18.9789C17.6097 19.0285 17.8171 19.0959 18.0315 19.181C18.2443 19.266 18.4428 19.3777 18.6254 19.516C18.808 19.6542 18.9551 19.8262 19.0685 20.0318C19.182 20.2374 19.2387 20.4821 19.2387 20.7692C19.2387 21.1309 19.1465 21.4499 18.9604 21.73C18.7743 22.0101 18.5066 22.2299 18.1556 22.393C17.8046 22.5543 17.3792 22.6358 16.8829 22.6358C16.3865 22.6358 15.993 22.5596 15.6456 22.4089C15.2981 22.2583 15.0251 22.042 14.8284 21.7637C14.6316 21.4854 14.5217 21.1539 14.5022 20.7692H15.4665C15.4842 20.9997 15.5605 21.1911 15.6916 21.3436C15.8228 21.496 15.993 21.6095 16.1986 21.6822C16.4042 21.7548 16.6311 21.7921 16.8775 21.7921C17.1488 21.7921 17.3916 21.7495 17.6043 21.6627C17.8171 21.5758 17.9837 21.457 18.106 21.301C18.2283 21.145 18.2903 20.966 18.2903 20.7586C18.2903 20.5707 18.2372 20.4165 18.1308 20.2959C18.0245 20.1754 17.8791 20.0761 17.6983 19.9981C17.5175 19.9201 17.3118 19.8492 17.0849 19.7907L16.3316 19.5851C15.821 19.4468 15.4169 19.2412 15.1209 18.9718C14.823 18.7023 14.6741 18.346 14.6741 17.9029C14.6741 17.5359 14.7734 17.2151 14.9719 16.9421C15.1705 16.6691 15.4399 16.4546 15.7803 16.3022C16.1206 16.1497 16.5035 16.0735 16.9307 16.0735C17.3579 16.0735 17.7426 16.1497 18.0741 16.3004C18.4056 16.4511 18.6644 16.6602 18.8558 16.9244C19.0473 17.1885 19.1465 17.4916 19.1536 17.8337H18.2265L18.223 17.8355ZM16.6276 23.3272V15.3662H17.1381V23.3272H16.6276Z" fill="#291482"/>
</svg>
