<svg width="32" height="32" viewBox="0 0 32 32" fill="none" xmlns="http://www.w3.org/2000/svg">
<rect x="28.9661" y="24" width="26.6667" height="16" rx="1" transform="rotate(180 28.9661 24)" fill="#ACA2FF"/>
<circle cx="21.6326" cy="19.3335" r="2" transform="rotate(180 21.6326 19.3335)" fill="#291482"/>
<path d="M24.2993 21.3335C23.9709 21.3335 23.6616 21.2531 23.3882 21.1128C23.8475 20.6595 24.1323 20.0298 24.1323 19.3335C24.1323 18.6374 23.8472 18.0084 23.3882 17.5552C23.6617 17.4148 23.9707 17.3335 24.2993 17.3335C25.4039 17.3335 26.2993 18.2289 26.2993 19.3335C26.2993 20.4381 25.4039 21.3335 24.2993 21.3335Z" fill="#291482"/>
<rect x="4.96606" y="17.3335" width="5.33333" height="4" rx="1" fill="#291482"/>
<rect x="2.29932" y="10.6665" width="26.6667" height="2.66667" fill="#291482"/>
</svg>
