<svg width="32" height="32" viewBox="0 0 32 32" fill="none" xmlns="http://www.w3.org/2000/svg">
<g clip-path="url(#clip0_31_20841)">
<path d="M25.3748 21.8402C25.3748 27.1802 21.0048 28.0002 15.6248 28.0002C10.2448 28.0002 5.88477 27.1802 5.88477 21.8402C5.88477 17.6702 8.85477 12.3402 12.6048 10.1902C12.4548 9.92024 12.3248 9.65024 12.2048 9.39024C11.0048 6.88024 10.7648 4.88024 10.9748 4.67024C11.1248 4.40024 11.2248 4.31024 11.4548 4.19024C11.6848 4.07024 11.7348 4.07024 11.9848 4.12024C12.2448 4.17024 12.5048 4.24024 12.7648 4.21024C13.0848 4.17024 13.3948 3.97024 13.7248 4.01024C14.0648 4.05024 14.3448 4.34024 14.6848 4.34024C15.0248 4.34024 15.3248 4.05024 15.6748 4.00024C16.0148 3.97024 16.3248 4.20024 16.6648 4.26024C17.0648 4.32024 17.4448 4.15024 17.8448 4.08024C18.1848 4.02024 18.5448 4.04024 18.8848 4.13024C19.1448 4.20024 19.5948 4.38024 20.0348 5.14024C20.5248 5.65024 19.6748 7.90024 19.0348 9.38024C18.9448 9.59024 18.8548 9.79024 18.7848 9.96024C18.7148 10.1002 18.6748 10.1802 18.6748 10.1802C22.4248 12.3302 25.3748 17.6602 25.3748 21.8302V21.8402Z" fill="#A9A5F8"/>
<path d="M25.1447 14.7099C24.3147 14.6499 23.6747 14.1199 23.2747 13.4099C22.9247 12.7699 22.7347 12.1399 21.9047 12.0399C21.5147 11.9999 21.1047 12.0699 20.7147 11.9699C20.3647 11.8699 20.0847 11.6499 19.8147 11.4099C19.3547 10.9999 18.8847 10.4899 18.2947 10.4299C18.6247 11.0099 19.2447 11.5199 19.5447 12.0399C19.9647 12.7899 19.9847 13.5699 19.9547 14.3999C19.9547 14.5999 19.1047 14.7599 19.1047 14.9499C19.1247 14.1099 19.1047 13.3299 18.6847 12.5899C18.2547 11.8299 17.2047 11.1399 17.2047 10.1899H12.6047C12.4547 9.91994 12.2347 9.44994 12.1147 9.18994H19.1247C19.0647 9.32994 18.9147 9.66994 18.8647 9.78994C19.1447 9.99994 19.4047 10.2599 19.6647 10.4899C20.3347 11.0699 20.8747 10.9599 21.6847 11.0599C22.5547 11.1599 22.7247 11.8499 23.1047 12.4999C23.5047 13.1799 24.1347 13.6599 24.9247 13.7299C25.0347 13.7399 25.0547 14.7099 25.1447 14.7099Z" fill="#291482"/>
</g>
<defs>
<clipPath id="clip0_31_20841">
<rect width="19.49" height="24" fill="white" transform="translate(5.88477 4)"/>
</clipPath>
</defs>
</svg>
