<svg width="32" height="32" viewBox="0 0 32 32" fill="none" xmlns="http://www.w3.org/2000/svg">
<path fill-rule="evenodd" clip-rule="evenodd" d="M13.4513 5.2191C14.0496 4.47762 14.9691 4 16 4C17.0309 4 17.9504 4.47762 18.5487 5.2191C18.6193 5.30706 18.6837 5.36843 18.7359 5.40934C18.788 5.4482 18.8177 5.45843 18.8269 5.46047C18.834 5.46252 18.8637 5.46865 18.9251 5.46047C18.9895 5.45229 19.0754 5.43081 19.1828 5.38888C20.0716 5.04626 21.1076 5.09228 22.0006 5.60775C22.8944 6.12425 23.4529 7.00073 23.5991 7.94474C23.6165 8.05621 23.64 8.1411 23.6646 8.20042C23.6891 8.25872 23.7086 8.2802 23.7147 8.28633C23.7198 8.29145 23.7413 8.31088 23.7996 8.33542C23.8589 8.35997 23.9438 8.38452 24.0553 8.40088C24.9993 8.54713 25.8758 9.10555 26.3923 9.99945C26.9077 10.8923 26.9548 11.9284 26.6111 12.8172C26.5692 12.9246 26.5477 13.0105 26.5395 13.0749C26.5313 13.1363 26.5375 13.166 26.5395 13.1731C26.5416 13.1823 26.5518 13.212 26.5907 13.2641C26.6316 13.3163 26.6929 13.3807 26.7809 13.4513C27.5224 14.0496 28 14.9691 28 16C28 17.0309 27.5224 17.9504 26.7809 18.5487C26.6929 18.6193 26.6316 18.6837 26.5907 18.7359C26.5518 18.788 26.5416 18.8177 26.5395 18.8269C26.5375 18.834 26.5313 18.8637 26.5395 18.9251C26.5477 18.9895 26.5692 19.0754 26.6111 19.1828C26.9548 20.0716 26.9077 21.1076 26.3923 22.0006C25.8758 22.8944 24.9993 23.4529 24.0553 23.5991C23.9438 23.6165 23.8589 23.64 23.7996 23.6646C23.7413 23.6891 23.7198 23.7086 23.7147 23.7147C23.7086 23.7198 23.6891 23.7413 23.6646 23.7996C23.64 23.8589 23.6165 23.9438 23.5991 24.0553C23.4529 24.9993 22.8955 25.8758 22.0006 26.3923C21.1077 26.9077 20.0716 26.9548 19.1828 26.6111C19.0754 26.5692 18.9895 26.5477 18.9251 26.5395C18.8637 26.5313 18.834 26.5375 18.8269 26.5395C18.8177 26.5416 18.788 26.5518 18.7359 26.5907C18.6837 26.6316 18.6193 26.6929 18.5487 26.7809C17.9504 27.5224 17.0309 28 16 28C14.9691 28 14.0496 27.5224 13.4513 26.7809C13.3807 26.6929 13.3163 26.6316 13.2641 26.5907C13.212 26.5518 13.1823 26.5416 13.1731 26.5395C13.166 26.5375 13.1363 26.5313 13.0749 26.5395C13.0105 26.5477 12.9246 26.5692 12.8172 26.6111C11.9284 26.9548 10.8924 26.9077 9.99945 26.3923C9.10453 25.8758 8.54713 24.9993 8.40088 24.0553C8.38452 23.9438 8.35997 23.8589 8.33542 23.7996C8.31088 23.7413 8.29145 23.7198 8.28633 23.7147C8.2802 23.7086 8.25872 23.6891 8.20042 23.6646C8.1411 23.64 8.05622 23.6165 7.94474 23.5991C7.00073 23.4529 6.12425 22.8955 5.60775 22.0006C5.09227 21.1077 5.04627 20.0716 5.38888 19.1828C5.43081 19.0754 5.45229 18.9895 5.46047 18.9251C5.46865 18.8637 5.46252 18.8351 5.46047 18.8269C5.45843 18.8177 5.4482 18.788 5.40934 18.7359C5.36843 18.6837 5.30706 18.6193 5.2191 18.5487C4.47762 17.9504 4 17.0309 4 16C4 14.9691 4.47762 14.0496 5.2191 13.4513C5.30706 13.3807 5.36843 13.3163 5.40934 13.2641C5.4482 13.212 5.45843 13.1823 5.46047 13.1731C5.46252 13.166 5.46865 13.1363 5.46047 13.0749C5.45229 13.0105 5.43081 12.9246 5.38888 12.8172C5.04626 11.9284 5.09228 10.8924 5.60775 9.99945C6.12425 9.10555 7.00073 8.54713 7.94474 8.40088C8.05622 8.38452 8.1411 8.35997 8.20042 8.33542C8.25872 8.31088 8.2802 8.29144 8.28633 8.28633C8.29145 8.2802 8.31088 8.25872 8.33542 8.20042C8.35997 8.1411 8.38349 8.05621 8.40088 7.94474C8.54713 7.00073 9.10453 6.12425 9.99945 5.60775C10.8923 5.09227 11.9284 5.04627 12.8172 5.38888C12.9246 5.43081 13.0105 5.45229 13.0749 5.46047C13.1363 5.46865 13.166 5.46252 13.1731 5.46047C13.1823 5.45843 13.212 5.4482 13.2641 5.40934C13.3163 5.36843 13.3807 5.30706 13.4513 5.2191Z" fill="#ACA2FF"/>
<path d="M19.347 11.7103C19.6074 11.4501 20.0294 11.45 20.2897 11.7103C20.5498 11.9706 20.5498 12.3927 20.2897 12.653L12.653 20.2897C12.3927 20.5498 11.9706 20.5498 11.7103 20.2897C11.45 20.0294 11.4501 19.6074 11.7103 19.347L19.347 11.7103Z" fill="#291482"/>
<path d="M13.6971 12.9997C13.6969 12.6149 13.384 12.3031 12.9992 12.3031C12.6145 12.3033 12.3028 12.615 12.3026 12.9997C12.3026 13.3845 12.6144 13.6974 12.9992 13.6976C13.3841 13.6976 13.6971 13.3846 13.6971 12.9997ZM15.0304 12.9997C15.0304 14.121 14.1205 15.0309 12.9992 15.0309C11.878 15.0307 10.9692 14.1209 10.9692 12.9997C10.9694 11.8787 11.8782 10.9699 12.9992 10.9697C14.1204 10.9697 15.0302 11.8785 15.0304 12.9997Z" fill="#291482"/>
<path d="M19.6978 18.9997C19.6976 18.6149 19.3847 18.3031 18.9999 18.3031C18.6153 18.3033 18.3035 18.615 18.3033 18.9997C18.3033 19.3845 18.6152 19.6974 18.9999 19.6976C19.3848 19.6976 19.6978 19.3846 19.6978 18.9997ZM21.0312 18.9997C21.0312 20.121 20.1212 21.0309 18.9999 21.0309C17.8788 21.0307 16.97 20.1209 16.97 18.9997C16.9702 17.8787 17.8789 16.9699 18.9999 16.9697C20.1211 16.9697 21.031 17.8785 21.0312 18.9997Z" fill="#291482"/>
</svg>
