<svg width="32" height="32" viewBox="0 0 32 32" fill="none" xmlns="http://www.w3.org/2000/svg">
<path d="M24.7879 21.3453H3.10847C2.49628 21.3453 2 21.845 2 22.4613V22.4848C2 23.1012 2.49628 23.6008 3.10847 23.6008H24.7879C25.4001 23.6008 25.8964 23.1012 25.8964 22.4848V22.4613C25.8964 21.845 25.4001 21.3453 24.7879 21.3453Z" stroke="#291482" stroke-width="1.25" stroke-miterlimit="10" stroke-linecap="round"/>
<path d="M2.96844 21.3454C3.63353 17.4101 7.02896 13.557 10.2844 11.4895C13.7498 9.28099 17.8803 8.25898 21.9292 7.90656C23.3877 7.77734 24.7879 8.04753 25.7797 9.18701C26.9582 10.5262 28.0666 11.9359 29.1984 13.322C29.9802 14.2736 30.5403 15.7185 29.1518 16.4938C24.7412 19.0547 24.9162 21.3454 24.9162 21.3454" stroke="#291482" stroke-width="1.25" stroke-miterlimit="10" stroke-linecap="round"/>
<path d="M21.8592 15.2134H10.6111C10.4827 15.2134 10.4244 15.0606 10.5061 14.9784C11.3345 14.0504 14.7183 10.7259 20.5057 10.8434C20.5057 10.8434 22.5826 10.7729 23.7844 12.1708C24.1811 12.629 24.4028 13.2516 24.2745 13.8389C24.1345 14.485 23.5977 15.2134 21.8592 15.2134Z" stroke="#291482" stroke-width="1.25" stroke-miterlimit="10" stroke-linecap="round"/>
<path d="M15.8268 15.2133V13.9446C15.8268 13.5922 16.1068 13.322 16.4452 13.322H19.7706C20.1207 13.322 20.389 13.604 20.389 13.9446V15.2133" stroke="#291482" stroke-width="1.25" stroke-miterlimit="10" stroke-linecap="round"/>
<path d="M26.5848 10.1267L28.3117 8.92847" stroke="#291482" stroke-width="1.25" stroke-miterlimit="10" stroke-linecap="round"/>
</svg>
