<svg width="32" height="32" viewBox="0 0 32 32" fill="none" xmlns="http://www.w3.org/2000/svg">
<path d="M20.9909 6.44326C18.9957 6.49508 17.4669 6.70237 17.4669 6.70237C17.4669 6.70237 15.2903 6.92262 13.0231 7.45381C11.2481 6.94853 9.4343 6.26187 11.1056 8.94372C11.1056 8.94372 11.1704 10.3948 11.3129 11.4442C11.3388 11.6903 11.3777 11.9495 11.4036 12.1827C11.1445 12.1956 10.8854 12.2086 10.6262 12.2086C9.01972 13.1155 7.4132 14.2167 8.39784 11.211C8.39784 11.211 8.2035 10.0709 8.06099 8.99554C7.93143 7.94613 7.8537 6.49508 7.8537 6.49508C6.19536 3.81323 7.99621 4.49989 9.78411 5.00516C12.0514 4.47398 14.215 4.24077 14.215 4.24077C14.215 4.24077 16.1324 3.98166 18.4515 3.9687C20.0581 3.0618 21.6646 1.96055 20.667 4.9663C20.667 4.9663 20.8484 5.65295 20.9909 6.44326Z" stroke="#FF8CF9" stroke-width="1.25" stroke-miterlimit="10" stroke-linecap="round"/>
<path d="M22.5844 13.6207C20.3301 14.1519 18.1535 14.3722 18.1535 14.3722C18.1535 14.3722 16.1972 14.6442 13.8652 14.6572C12.2587 15.5641 10.6521 16.6653 11.6497 13.6596C11.6497 13.6596 11.5202 12.9859 11.4036 12.1826C11.3777 11.9494 11.3388 11.6903 11.3129 11.4442C11.1704 10.3947 11.1056 8.94369 11.1056 8.94369C9.43429 6.26184 11.2481 6.9485 13.023 7.45377C15.2903 6.92258 17.4669 6.70234 17.4669 6.70234C17.4669 6.70234 18.9957 6.49504 20.9909 6.44322C21.2241 6.43026 21.4573 6.41731 21.6905 6.41731C23.297 5.5104 24.9035 4.40916 23.9189 7.4149C23.9189 7.4149 24.2039 8.49023 24.3464 9.5267C24.5019 10.5372 24.5148 12.1308 24.5148 12.1308C26.1732 14.8127 24.3723 14.126 22.5844 13.6207Z" stroke="#FF8CF9" stroke-width="1.25" stroke-miterlimit="10" stroke-linecap="round"/>
<path d="M24.476 10.9C26.6267 10.9907 28 12.6879 28 14.6183V21.9124C27.9093 24.1667 26.2121 25.4882 24.2039 25.4882" stroke="#FF8CF9" stroke-width="1.25" stroke-miterlimit="10" stroke-linecap="round"/>
<path d="M8.34605 10.9H7.59461C5.45691 10.9 4.00586 12.662 4.00586 14.4888V23.7133" stroke="#FF8CF9" stroke-width="1.25" stroke-miterlimit="10" stroke-linecap="round"/>
<path d="M28 21.9125C28 21.9125 28.0259 18.3237 23.3877 18.3237H10.9243C3.53946 18.3237 4.00587 23.7004 4.00587 23.7004C4.00587 23.7004 4.00587 29.077 10.6651 29.077C10.6651 29.077 21.7423 29.077 25.4347 29.077C28 29.077 28 25.4883 25.4736 25.4883C25.4607 25.4883 9.83597 25.4883 9.83597 25.4883C6.92092 25.4883 6.71363 21.9125 9.93962 21.9125H21.8978" stroke="#FF8CF9" stroke-width="1.25" stroke-miterlimit="10" stroke-linecap="round"/>
</svg>
