<svg width="32" height="32" viewBox="0 0 32 32" fill="none" xmlns="http://www.w3.org/2000/svg">
<path d="M24.4721 4.99805H7.52404C6.12793 4.99805 4.99615 6.12982 4.99615 7.52593V24.474C4.99615 25.8701 6.12793 27.0019 7.52404 27.0019H24.4721C25.8682 27.0019 27 25.8701 27 24.474V7.52593C27 6.12982 25.8682 4.99805 24.4721 4.99805Z" stroke="#291482" stroke-width="1.5" stroke-miterlimit="10" stroke-linecap="round"/>
<path d="M16.0083 22.0792C19.3657 22.0792 22.0875 19.3574 22.0875 16C22.0875 12.6425 19.3657 9.92078 16.0083 9.92078C12.6508 9.92078 9.92908 12.6425 9.92908 16C9.92908 19.3574 12.6508 22.0792 16.0083 22.0792Z" stroke="#291482" stroke-width="1.5" stroke-miterlimit="10" stroke-linecap="round"/>
<path d="M23.3259 10.2073C24.1342 10.2073 24.7894 9.55206 24.7894 8.74379C24.7894 7.93551 24.1342 7.28027 23.3259 7.28027C22.5176 7.28027 21.8624 7.93551 21.8624 8.74379C21.8624 9.55206 22.5176 10.2073 23.3259 10.2073Z" stroke="#291482" stroke-width="1.5" stroke-miterlimit="10" stroke-linecap="round"/>
<path d="M10.0008 16.3887C10.0008 16.3887 12.5287 14.4033 16.3359 16.358C16.3359 16.358 19.4471 18.0467 21.975 15.4574" stroke="#291482" stroke-width="1.5" stroke-miterlimit="10" stroke-linecap="round"/>
</svg>
