<svg width="24" height="24" viewBox="0 0 24 24" fill="none" xmlns="http://www.w3.org/2000/svg">
<path d="M20.988 10.221L20.2315 4.40797C20.1649 3.91005 19.7534 3.52012 19.251 3.47812L13.3564 3.0162C13.0356 2.9922 12.7149 3.11218 12.491 3.34615L3.29192 12.9266C2.88644 13.3525 2.89854 14.0244 3.33429 14.4323L9.98544 20.7073C10.4151 21.1152 11.099 21.0972 11.5045 20.6713L20.7035 11.0909C20.9275 10.8569 21.0303 10.539 20.988 10.221Z" fill="#291482"/>
<path d="M17.3605 6.44429C16.9426 6.0506 16.9303 5.3924 17.3236 4.97411C17.7169 4.55581 18.3744 4.54351 18.7922 4.9372C19.2101 5.33089 19.2223 5.98908 18.8291 6.40738C18.4297 6.81952 17.7722 6.83798 17.3605 6.44429Z" fill="white" stroke="#291482" stroke-width="0.369333"/>
<path d="M18.2403 5.54803V5.54803C18.1314 5.44605 18.1253 5.27208 18.2282 5.16409L20.2314 3.08244C20.3343 2.97446 20.5098 2.96846 20.6187 3.07044V3.07044C20.7277 3.17242 20.7337 3.3464 20.6308 3.45438L18.6337 5.54203C18.5247 5.65001 18.3553 5.65001 18.2403 5.54803Z" fill="#291482"/>
<path fill-rule="evenodd" clip-rule="evenodd" d="M10.4466 13.9772L10.6289 13.7949L10.8109 13.6129L11.8053 12.6185L12.0013 12.4225L12.198 12.2258C12.5416 13.0662 12.5488 13.726 12.2078 14.0671C11.7235 14.5513 10.9886 14.3922 10.4466 13.9772M12.4345 9.28966C12.9183 8.80577 13.6536 8.96454 14.1953 9.37985L14.0133 9.56185L13.8309 9.7442L12.8369 10.7382L12.6409 10.9342L12.4442 11.1309C12.101 10.2908 12.0934 9.63069 12.4345 9.28966M12.9009 11.523L13.0915 11.3324L14.2467 10.1772L14.4308 9.99308L14.6135 9.81036C14.9659 10.3045 15.0485 10.9169 14.8282 11.3666C14.8053 11.4134 14.8118 11.4696 14.8485 11.5064L15.1746 11.8325C15.2139 11.8718 15.2798 11.8671 15.3104 11.8207C15.7395 11.1684 15.7189 10.264 15.2269 9.50401L15.1166 9.33345L15.7771 8.67295C15.8762 8.57387 15.8774 8.41425 15.7798 8.31664L15.68 8.21691C15.5828 8.11966 15.4228 8.12049 15.3237 8.21957L14.6679 8.87541L14.496 8.75662C13.6343 8.16056 12.6236 8.19305 11.9807 8.83596C11.3791 9.43759 11.3686 10.4064 11.9341 11.641L11.741 11.8342L11.5507 12.0244L10.3956 13.1796L10.211 13.3641L10.0287 13.5464C9.67401 13.049 9.59257 12.4307 9.81877 11.9803C9.8391 11.9399 9.8334 11.8909 9.80138 11.8588L9.44321 11.5007C9.41646 11.4739 9.37182 11.4771 9.35043 11.5083C8.90253 12.1611 8.91582 13.0794 9.41325 13.85L9.52314 14.0202L8.86228 14.681C8.76321 14.7801 8.76237 14.9401 8.85962 15.0373L8.95935 15.1371C9.05696 15.2347 9.21659 15.2335 9.31566 15.1344L9.97114 14.4789L10.1431 14.5984C11.0051 15.1963 12.0172 15.1652 12.6615 14.5208C13.2632 13.9192 13.2733 12.95 12.7081 11.7158L12.9009 11.523Z" fill="white"/>
</svg>
